<svg width="616" height="635" viewBox="0 0 616 635" fill="none" xmlns="http://www.w3.org/2000/svg">
<path d="M52.3241 45.5395C52.3773 45.4614 52.4191 45.4038 52.4761 45.3216C52.4077 45.2887 52.3431 45.2476 52.2747 45.2147C52.2823 45.3257 52.2899 45.4367 52.2975 45.5436C52.3051 45.5436 52.3165 45.5436 52.3241 45.5436V45.5395Z" fill="#D6070E"/>
<path d="M209.685 40.4732C209.7 40.3909 209.73 40.3375 209.742 40.2511C209.681 40.2511 209.624 40.2593 209.563 40.2634C209.563 40.3333 209.586 40.3868 209.578 40.4608C209.612 40.4608 209.647 40.4773 209.681 40.4773L209.685 40.4732Z" fill="#D6070E"/>
<path d="M524.029 248.411C524.131 248.424 524.215 248.485 524.321 248.489C524.359 248.383 524.405 248.276 524.443 248.165C524.321 248.177 524.2 248.193 524.078 248.206C524.078 248.288 524.033 248.333 524.025 248.411H524.029Z" fill="#D6070E"/>
<path d="M471.632 18.7109C472.738 19.5128 473.399 19.2291 474.136 18.3243C475.337 16.8563 476.637 15.4745 477.651 13.8337C478.225 12.9085 478.305 11.4527 477.34 10.6015C476.861 10.1779 475.82 9.78722 475.527 10.0874C472.913 12.781 471.898 10.8112 470.895 8.09296C470.735 7.66117 469.47 7.29929 469.094 7.59948C467.734 8.68102 466.533 10.0627 465.419 11.1772C465.655 12.4643 465.682 13.3073 465.955 14.0064C467.091 16.885 469.645 17.2757 471.628 18.7109H471.632Z" fill="#D6070E"/>
<path d="M450.349 19.1221C451.744 17.5841 453.214 16.9179 454.875 18.6574C455.376 19.1838 455.965 19.776 456.577 19.9035C457.166 20.0268 457.839 19.5909 458.473 19.3977C458.31 18.752 458.295 17.9419 457.949 17.506C457.322 16.7041 457.162 16.1243 457.732 15.4457C458.279 12.6617 457.257 9.92704 455.908 10.6467C453.936 11.6953 453.036 12.4068 452.77 9.15805C452.743 8.83317 451.934 8.60289 451.485 8.32736C450.615 11.7447 449.608 15.125 448.955 18.604C448.768 19.5951 449.68 19.8541 450.341 19.1262L450.349 19.1221Z" fill="#D6070E"/>
<path d="M533.722 9.1457C534.136 8.90719 534.44 7.82977 534.41 7.16769C534.379 6.50972 533.98 5.51866 533.543 5.31715C532.647 4.90592 531.613 4.92648 530.808 4.79489C529.637 4.89359 528.626 4.86069 527.654 5.09098C526.753 5.3007 526.59 5.91755 526.924 6.65776C528.25 9.59805 531.028 10.7043 533.722 9.14981V9.1457Z" fill="#D6070E"/>
<path d="M339.944 25.0438C340.438 24.9451 340.879 24.2789 341.266 23.7855C341.319 23.7156 340.955 23.1357 340.761 22.8109C339.222 20.2448 337.132 19.5539 334.666 20.2736C334.366 20.3599 334.123 20.7218 333.853 20.9562C333.917 21.2687 333.929 21.6183 334.058 21.8815C335.392 24.6326 337.444 25.5496 339.944 25.0438Z" fill="#D6070E"/>
<path d="M24.8207 36.1224C26.0405 38.0141 27.8226 37.7344 29.5401 37.7344C30.0341 37.3438 30.5623 36.9284 31.0867 36.509C30.8321 36.2293 30.6117 35.8757 30.3191 35.6906C28.8524 34.7612 27.4008 33.7619 25.8619 33.0341C25.3337 32.7832 24.3305 32.9683 23.9733 33.4371C22.974 34.7448 24.3115 35.3411 24.8169 36.1224H24.8207Z" fill="#D6070E"/>
<path d="M347.259 19.9281C348.201 20.0104 349.151 19.9652 350.101 19.961C350.268 18.5012 350.986 17.7075 352.176 17.4772C352.05 15.5403 351.017 14.7343 349.615 15.2771C348.106 15.8652 346.791 17.0701 346.533 19.2291C346.51 19.4264 346.993 19.9035 347.263 19.924L347.259 19.9281Z" fill="#D6070E"/>
<path d="M305.658 27.5441C306.611 27.7374 307.637 27.7169 308.595 27.5071C309.055 27.4084 309.423 26.6806 309.834 26.2405C309.575 25.9938 309.344 25.6237 309.051 25.5332C308.435 25.3482 307.789 25.3112 307.155 25.2125C306.524 25.2824 305.878 25.2824 305.263 25.4551C304.978 25.5332 304.757 25.9362 304.506 26.1953C304.886 26.6682 305.221 27.4537 305.654 27.5441H305.658Z" fill="#D6070E"/>
<path d="M555.423 35.6824C555.495 34.9915 555.187 34.2472 554.975 33.1451C554.211 33.7907 553.485 34.276 552.9 34.9422C552.459 35.4439 552.197 36.1758 551.855 36.8091C552.41 37.097 552.942 37.5247 553.519 37.6439C554.716 37.8866 555.294 36.9202 555.419 35.6824H555.423Z" fill="#D6070E"/>
<path d="M46.9017 39.7247C47.0346 39.9962 47.4336 40.1812 47.7262 40.2141C48.7522 40.3251 49.7819 40.0085 50.0669 38.7337C50.2949 37.7221 50.1885 36.6035 50.1771 35.5096C49.383 35.9826 48.5394 36.3732 47.8668 37.0271C47.2284 37.6521 46.2291 38.3595 46.9017 39.7247Z" fill="#D6070E"/>
<path d="M209.563 40.2634C209.62 38.5157 208.511 37.6069 207.587 36.6405C207.226 36.2622 206.561 36.1265 206.056 36.184C205.463 36.2498 205.455 38.672 206.041 39.3998C207.059 40.6623 208.332 40.3333 209.563 40.2634Z" fill="#D6070E"/>
<path d="M364.157 14.1257C363.921 13.6363 363.663 12.7193 363.454 12.7357C362.606 12.8015 361.774 13.1552 360.722 13.4636C361.485 14.0722 361.96 14.722 362.489 14.796C363.017 14.87 363.598 14.3724 364.157 14.1216V14.1257Z" fill="#D6070E"/>
<path d="M485.722 2.22882C486.509 1.94919 487.637 2.36453 487.877 0.834757C487.911 0.612693 487.424 0.0369719 487.158 0.0205227C486.243 -0.0411617 485.236 -0.0699478 484.939 1.34057C484.901 1.52973 485.41 1.89162 485.722 2.22882Z" fill="#D6070E"/>
<path d="M254.949 34.572C255.173 33.84 255.583 33.0998 255.557 32.3843C255.538 31.8908 254.914 31.4302 254.572 30.9697C253.748 31.4631 253.436 32.2198 253.82 33.1286C254.059 33.6961 254.561 34.0991 254.945 34.572H254.949Z" fill="#D6070E"/>
<path d="M36.9385 39.5726C37.8428 38.672 37.7668 37.574 37.3298 36.4555C37.1968 36.11 36.9005 35.8592 36.6801 35.5631C36.4483 35.8427 36.1405 36.0771 35.9961 36.4144C35.5249 37.5 35.3729 38.6021 36.2811 39.4986C36.4255 39.6425 36.7219 39.5561 36.9385 39.5726Z" fill="#D6070E"/>
<path d="M487.212 8.10119C486.877 8.40139 486.778 9.09226 486.634 9.70088C487.132 9.51994 487.709 9.39245 487.911 8.99356C488.26 8.28625 487.717 7.64884 487.215 8.10119H487.212Z" fill="#D6070E"/>
<path d="M481.725 10.8441C481.519 10.7289 481.31 10.6097 481.101 10.4945C480.877 10.7125 480.653 10.9304 480.425 11.1484C480.634 11.3869 480.843 11.6295 481.052 11.868C481.276 11.5267 481.5 11.1854 481.721 10.8441H481.725Z" fill="#D6070E"/>
<path d="M484.981 11.6048C484.992 11.6912 485.623 11.8022 485.673 11.7035C485.916 11.1813 486.087 10.6138 486.273 10.0586C485.54 10.1491 484.791 10.219 484.981 11.6048Z" fill="#D6070E"/>
<path d="M486.273 10.0586C486.368 10.0463 486.467 10.034 486.558 10.0216C486.588 9.92294 486.607 9.80779 486.634 9.70499C486.547 9.73788 486.448 9.76256 486.368 9.80368C486.338 9.89004 486.303 9.9764 486.273 10.0628V10.0586Z" fill="#D6070E"/>
<path d="M296.804 27.1C297.059 26.9931 297.473 26.5531 297.443 26.4832C297.085 25.6196 296.629 25.4757 296.234 26.0719C296.135 26.2241 296.219 26.5531 296.219 26.8039C296.409 26.9108 296.652 27.1617 296.804 27.1Z" fill="#D6070E"/>
<path d="M210.965 32.1252C211.075 31.899 211.311 31.6153 211.265 31.4631C211.174 31.167 210.84 30.6859 210.749 30.7311C210.004 31.0848 209.871 31.5988 210.365 32.0512C210.502 32.1787 210.764 32.1046 210.969 32.1252H210.965Z" fill="#D6070E"/>
<path d="M280.662 31.4919C280.434 31.1958 280.222 30.6859 279.975 30.6612C279.735 30.6407 279.465 31.1136 279.207 31.3727C279.431 31.6893 279.659 32.006 279.883 32.3226C280.142 32.043 280.4 31.7674 280.659 31.4878L280.662 31.4919Z" fill="#D6070E"/>
<path d="M193.087 35.1272C192.98 35.1395 192.87 35.156 192.764 35.1683C192.73 35.2547 192.699 35.3452 192.669 35.4315C192.771 35.4315 192.882 35.4192 192.984 35.4233C193.018 35.3246 193.053 35.2259 193.087 35.1272Z" fill="#D6070E"/>
<path d="M194.307 33.5358C194.295 33.4576 193.699 33.3754 193.657 33.47C193.429 33.9963 193.265 34.5638 193.087 35.1231C193.82 35.0367 194.527 34.9052 194.303 33.5358H194.307Z" fill="#D6070E"/>
<path d="M43.0638 37.2574C43.3298 37.1505 43.7592 36.6858 43.7288 36.6035C43.364 35.6865 42.889 35.5302 42.4824 36.1553C42.3798 36.3157 42.4672 36.6529 42.4672 36.9284C42.6496 37.0394 42.908 37.3232 43.0638 37.2574Z" fill="#D6070E"/>
<path d="M50.9561 43.652C50.8801 43.6685 50.7927 44.4169 50.8687 44.4704C51.3171 44.7665 51.7997 44.9844 52.2747 45.2147C52.2139 44.2894 52.1303 43.3847 50.9561 43.652Z" fill="#D6070E"/>
<path d="M525.058 246.528C524.819 247.05 524.637 247.609 524.443 248.165C525.157 248.082 525.83 247.934 525.701 246.627C525.693 246.557 525.1 246.437 525.058 246.528Z" fill="#D6070E"/>
<path d="M269.848 614.673C269.795 614.751 269.753 614.809 269.696 614.891C269.764 614.924 269.829 614.965 269.897 614.998C269.89 614.887 269.882 614.78 269.874 614.669C269.867 614.669 269.855 614.669 269.848 614.669V614.673Z" fill="#D6070E"/>
<path d="M615.723 589.263C614.864 586.516 614.742 584.394 615.51 581.754C615.89 580.455 614.932 579.398 613.671 579.591C613.082 579.681 612.208 580.084 612.044 580.611C611.691 581.742 611.801 583.07 611.558 584.267C611.41 584.986 610.946 585.607 610.623 586.273C610.061 585.784 609.377 585.414 608.963 584.781C608.343 583.831 607.69 582.77 607.447 581.635C606.816 578.657 605.801 580.216 604.673 581.051C604.137 581.446 603.145 581.865 602.799 581.557C600.098 579.139 597.012 579.143 593.919 579.303C591.787 579.41 589.766 579.472 587.972 577.691C587.706 577.428 586.771 577.843 586.312 578.234C583.96 580.228 581.972 578.834 581.14 576.49C579.457 571.745 576.409 569.75 572.594 569.24C570.139 568.911 567.985 567.476 565.747 567.011C563.262 566.493 561.369 564.392 558.987 564.215C556.194 564.009 553.507 563.808 551.163 561.604C550.726 561.193 549.799 561.624 549.111 561.513C547.26 561.217 546.09 564.449 543.54 562.295C541.842 560.859 538.851 561.641 536.438 561.484C534.687 561.369 533.076 561.6 531.54 563.014C530.218 564.232 528.58 565.436 527.003 565.617C525.51 565.79 523.929 564.285 522.349 564.129C519.575 563.857 516.691 564.552 513.996 563.927C511.006 563.236 508.62 566.756 505.272 564.61C503.045 563.187 499.808 564.055 497.022 563.935C496.327 563.907 495.586 564.223 494.94 564.026C493.124 563.475 491.912 566.806 490.327 565.408C488.442 563.742 486.238 564.68 484.354 563.553C483.316 562.932 478.441 563.212 476.427 563.462C475.47 563.582 473.969 563.697 473.577 563.051C471.111 558.98 468.949 559.552 466.373 562.936C465.096 564.61 463.086 564.359 461.517 563.36C460.225 562.537 459.415 562.521 457.941 563.142C455.748 564.067 453.202 563.907 450.805 563.944C448.7 563.977 446.621 560.543 444.482 563.894C442.038 563.87 439.561 564.141 437.163 563.722C435.525 563.434 433.998 562.2 432.436 561.357C431.703 560.962 431.057 558.705 431.524 558.133C431.98 557.574 432.535 556.661 433.021 556.685C436.073 556.825 439.31 555.402 442.107 558.055C443.406 559.289 444.714 558.98 445.888 557.845C447.058 556.714 448.365 556.451 449.786 556.566C453.157 556.838 456.774 555.234 459.769 558.589C460.103 558.968 461.27 558.832 461.703 558.413C464.446 555.756 467.627 556.484 470.727 556.443C473.862 556.402 477.001 556.282 480.136 556.2C483.335 552.845 486.39 554.288 489.715 556.159C491.167 556.977 492.976 557.134 494.613 557.792C495.845 558.285 497.577 556.513 499.131 556.352C505.964 555.645 512.986 558.022 519.658 554.329C520.84 553.675 521.63 556.55 523.302 555.427C524.461 554.65 525.852 554.239 527.178 554.017C528.299 553.827 529.454 553.4 529.591 552.199C530.112 547.556 533.003 547.906 534.968 549.263C538.046 551.393 540.622 552.211 543.445 549.185C546.094 552.622 546.379 549.637 547.101 547.338C547.26 546.836 548.013 546.606 548.59 546.298C548.59 546.343 548.606 546.38 548.602 546.425C548.663 546.388 548.723 546.351 548.784 546.314C548.784 546.273 548.788 546.232 548.788 546.191C548.727 546.228 548.655 546.261 548.587 546.298C548.571 544.932 547.963 543.793 546.903 544.061C545.623 544.381 544.525 545.632 543.259 546.166C541.329 546.98 540.151 544.858 538.65 544.044C536.887 543.09 536.058 546.915 534.143 545.118C533.376 544.398 532.327 543.876 531.366 543.756C529.998 543.588 528.592 543.917 527.205 543.95C525.966 543.983 525.331 546.902 523.747 545.044C522.82 543.954 521.478 543.164 521.543 541.236C523.606 540.006 525.765 538.949 527.684 537.448C529.644 535.914 531.913 535.643 533.672 536.506C537.339 538.316 540.729 539.484 544.3 536.523C544.536 536.33 545.083 536.342 545.311 536.543C549.723 540.438 554.758 537.995 559.481 538.678C562.81 539.159 565.469 537.201 568.319 535.885C569.425 535.376 569.71 534.039 569.433 532.814C569.285 532.168 568.608 531.415 568.057 531.243C566.427 530.741 564.63 531.214 563.247 529.437C559.416 524.515 554.537 523.244 549.149 523.553C545.672 523.754 542.161 523.82 538.696 523.479C535.333 523.146 531.711 524.527 528.626 521.464C528.166 521.003 526.775 521.858 525.833 522.179C524.875 522.504 523.641 523.581 523.048 523.187C520.901 521.747 518.651 521.106 516.284 520.666C515.266 520.477 515.186 519.687 515.923 518.881C516.178 518.602 516.345 518.215 516.58 517.907C517.899 516.196 519.442 515.184 517.77 511.907C516.493 509.406 515.581 508.082 513.221 508.185C512.636 508.21 512.028 507.531 511.432 507.177C512.226 506.663 513.005 506.112 513.818 505.648C514.677 505.154 514.802 504.64 514.445 503.814C513.377 501.334 511.226 500.927 509.475 499.714C509.079 499.438 508.927 498.246 508.984 497.514C509.068 496.473 509.752 495.992 510.254 496.523C513.286 499.726 517.435 496.391 520.148 498.534C523.728 501.363 526.544 500.285 529.716 498.406C529.994 498.242 530.549 498.204 530.716 498.414C533.254 501.581 536.948 499.5 539.532 501.026C544.977 504.245 551.136 501.7 556.426 504.961C558.782 502.21 560.594 506.807 563.022 505.639C564.402 504.977 565.454 504.398 565.545 502.522C565.633 500.742 565.34 499.163 564.25 497.945C562.984 496.539 564.367 495.823 564.755 494.898C565.097 494.084 564.968 493.237 564.086 493.245C563.148 493.253 562.129 493.804 561.301 494.421C560.533 494.993 560.055 495.264 559.659 494.594C559.477 494.281 559.348 493.878 559.306 493.496C559.131 492.028 559.823 491.156 560.872 490.794C561.521 490.568 562.266 490.774 562.954 490.658C567.673 489.873 572.674 492.065 577.177 488.553C577.773 488.088 579.081 488.915 580.046 489.194C581.364 489.577 582.668 490.346 583.982 490.366C593.045 490.51 602.108 490.502 611.174 490.539C611.52 490.539 611.984 490.634 612.193 490.408C612.584 489.992 612.915 489.408 613.089 488.82C613.158 488.594 612.683 488.183 612.535 487.809C611.235 484.572 609.031 488.166 607.409 486.793C606.295 485.851 604.635 485.629 603.799 484.474C602.134 482.171 600.744 485.695 599.406 484.474C595.23 480.674 589.576 485.391 585.533 480.892C585.438 480.785 584.94 481.077 584.704 481.299C581.273 484.548 579.134 479.979 576.356 479.3C576.348 475.435 573.461 474.682 571.507 473.905C568.35 472.651 565.397 470.475 561.985 470.22C560.986 470.146 560.119 469.974 559.637 468.777C560.248 468.452 560.849 467.872 561.468 467.843C565.298 467.683 569.133 467.724 572.959 467.51C573.901 467.457 575.171 466.992 575.653 466.174C576.147 465.327 575.995 463.933 576.063 462.724C577.716 462.596 579.388 462.563 581.011 462.23C581.444 462.14 581.942 461.054 582.025 460.359C582.105 459.681 581.729 458.307 581.493 458.286C577.77 457.982 574.718 454.594 570.839 454.988C568.775 455.198 566.67 454.857 564.614 455.108C562.141 455.412 559.925 454.972 557.972 453.056C556.365 455.009 554.419 455.317 552.242 454.988C551.847 454.927 551.448 454.89 551.049 454.869C553.735 452.899 556.411 450.901 559.2 449.174C560.545 448.339 561.814 449.017 562.532 451.259C563.178 453.282 567.271 454.766 567.848 453.508C569.38 450.173 572.64 447.154 571.348 443.005C570.432 440.077 570.303 437.811 571.124 434.994C571.526 433.609 570.508 432.482 569.163 432.687C568.532 432.786 567.605 433.214 567.43 433.777C567.054 434.982 567.172 436.401 566.91 437.676C566.75 438.441 566.256 439.107 565.914 439.814C565.314 439.292 564.584 438.897 564.143 438.223C563.482 437.211 562.783 436.08 562.528 434.867C561.856 431.692 560.773 433.354 559.572 434.242C559.002 434.665 557.942 435.11 557.573 434.781C554.693 432.202 551.402 432.21 548.104 432.379C545.832 432.494 543.673 432.556 541.762 430.66C541.481 430.38 540.482 430.825 539.991 431.24C537.483 433.366 535.363 431.881 534.478 429.381C532.68 424.319 529.435 422.197 525.366 421.65C522.748 421.3 520.449 419.771 518.062 419.273C517.458 419.146 516.888 418.932 516.337 418.677C516.379 418.66 516.421 418.644 516.463 418.632C516.554 418.603 516.637 418.031 516.542 417.854C516.36 417.517 516.052 417.044 515.786 417.036C512.085 416.904 509.129 416.292 512.594 410.798C512.663 410.687 512.416 410.045 512.268 410.016C508.213 409.198 504.098 408.507 500.241 410.781C498.459 411.83 498.561 410.251 498.444 409.284C498.261 407.775 497.52 406.94 496.479 406.928C495.153 406.907 493.61 406.94 492.539 407.713C489.81 409.683 488.264 406.718 486.398 405.678C485.756 405.32 485.744 402.598 485.927 401.039C485.934 400.969 485.957 400.908 485.969 400.842C488.933 402.733 491.494 403.256 494.275 400.27C497.098 403.938 497.402 400.751 498.17 398.3C498.337 397.766 499.143 397.519 499.758 397.19C499.758 397.239 499.774 397.281 499.774 397.326C499.838 397.289 499.903 397.244 499.967 397.207C499.967 397.161 499.971 397.116 499.971 397.075C499.907 397.116 499.827 397.149 499.758 397.19C499.739 395.734 499.097 394.517 497.965 394.805C496.601 395.15 495.43 396.483 494.078 397.05C494.036 397.067 493.994 397.079 493.952 397.091C494.005 396.824 494.024 396.569 493.983 396.388C493.226 393.288 491.136 391.31 488.72 391.663C487.443 391.852 486.261 393.304 485.011 393.362C483.814 393.415 482.613 392.136 481.359 391.935C480.322 391.766 479.684 392.761 479.456 394.007C478.795 394.003 478.137 393.995 477.476 393.991C477.237 391.404 475.052 391.819 473.843 390.726C473.699 390.594 473.558 390.483 473.418 390.368C474.812 389.574 476.192 388.76 477.476 387.756C479.566 386.124 481.986 385.828 483.86 386.753C487.77 388.682 491.383 389.928 495.191 386.774C495.442 386.568 496.023 386.58 496.27 386.794C500.974 390.948 506.344 388.34 511.378 389.072C514.927 389.586 517.762 387.497 520.802 386.091C521.984 385.548 522.284 384.125 521.988 382.818C521.832 382.131 521.106 381.325 520.521 381.144C518.784 380.609 516.865 381.115 515.391 379.215C511.31 373.964 506.104 372.611 500.359 372.94C496.65 373.154 492.907 373.224 489.214 372.858C485.627 372.504 481.766 373.976 478.475 370.711C477.981 370.222 476.503 371.13 475.496 371.476C474.474 371.825 473.156 372.973 472.529 372.549C470.241 371.015 467.84 370.333 465.313 369.86C464.226 369.658 464.142 368.815 464.929 367.956C465.199 367.66 465.377 367.244 465.628 366.915C467.034 365.094 468.679 364.012 466.893 360.517C465.529 357.852 464.56 356.437 462.045 356.544C461.418 356.573 460.772 355.845 460.137 355.467C460.985 354.92 461.813 354.332 462.679 353.834C463.595 353.308 463.728 352.761 463.348 351.881C462.212 349.237 459.913 348.801 458.047 347.509C457.625 347.217 457.462 345.943 457.527 345.161C457.614 344.055 458.347 343.541 458.879 344.104C462.113 347.522 466.54 343.965 469.432 346.247C473.251 349.265 476.252 348.114 479.634 346.111C479.931 345.939 480.523 345.897 480.698 346.12C483.404 349.496 487.344 347.275 490.099 348.904C495.905 352.337 502.475 349.623 508.114 353.102C510.626 350.166 512.556 355.068 515.152 353.826C516.622 353.119 517.743 352.502 517.842 350.499C517.933 348.599 517.625 346.913 516.463 345.622C515.114 344.121 516.592 343.356 517.002 342.373C517.367 341.506 517.23 340.601 516.288 340.609C515.288 340.617 514.202 341.205 513.32 341.863C512.503 342.472 511.994 342.764 511.568 342.048C511.371 341.715 511.238 341.283 511.188 340.876C511.002 339.31 511.739 338.384 512.857 337.994C513.548 337.751 514.342 337.973 515.076 337.85C520.107 337.011 525.442 339.351 530.241 335.604C530.875 335.107 532.27 335.991 533.3 336.291C534.706 336.698 536.093 337.521 537.499 337.541C547.162 337.693 556.828 337.689 566.492 337.726C566.86 337.726 567.354 337.825 567.578 337.586C567.996 337.142 568.346 336.521 568.536 335.892C568.608 335.654 568.103 335.21 567.943 334.815C566.556 331.365 564.208 335.197 562.479 333.733C561.29 332.73 559.523 332.491 558.63 331.258C556.855 328.803 555.373 332.561 553.944 331.258C549.491 327.207 543.461 332.236 539.152 327.437C539.049 327.322 538.517 327.635 538.27 327.869C534.611 331.332 532.327 326.463 529.367 325.739C529.359 321.618 526.278 320.817 524.195 319.986C520.829 318.649 517.679 316.326 514.042 316.059C512.978 315.98 512.055 315.795 511.538 314.521C512.188 314.175 512.83 313.554 513.491 313.525C517.576 313.353 521.665 313.398 525.746 313.172C526.753 313.114 528.105 312.621 528.618 311.745C529.143 310.844 528.983 309.351 529.055 308.064C530.818 307.929 532.601 307.896 534.333 307.538C534.793 307.443 535.325 306.284 535.413 305.543C535.5 304.82 535.097 303.352 534.843 303.331C530.872 303.006 527.619 299.396 523.481 299.815C521.281 300.037 519.039 299.671 516.843 299.943C514.205 300.267 511.846 299.799 509.76 297.755C508.046 299.84 505.971 300.165 503.649 299.815C498.292 299.005 492.599 301.785 487.527 297.64C487.416 297.549 486.941 298.1 486.645 298.368C484.677 300.144 482.237 300.535 480.501 298.861C478.004 296.451 476.454 300.744 474.58 299.519C472.673 298.277 470.868 297.006 468.649 297.015C468.387 295.111 468.987 292.688 466.722 291.948C463.618 290.937 462.398 292.22 461.794 296.957C459.21 296.665 459.765 294.124 459.643 292.154C459.499 289.814 457.675 288.547 456.786 289.497C453.814 292.664 451.519 288.547 448.852 289.041C443.444 290.044 438.535 287.363 433.599 285.364C433.508 285.052 433.409 284.715 433.333 284.349C433.021 284.534 432.717 284.715 432.41 284.896C431.467 284.563 431.053 284.637 430.707 285.907C429.879 286.397 429.058 286.886 428.237 287.371C428.366 287.63 428.443 287.972 428.629 288.14C428.955 288.436 429.354 288.638 429.776 288.757C428.974 290.201 427.702 291.2 426.178 291.747C426.106 292.935 426.113 294.148 425.881 295.292C425.794 295.719 425.08 296.015 424.605 296.229C424.513 296.27 424.084 295.662 424.038 295.308C423.894 294.152 423.837 292.98 423.753 291.817C422.697 291.697 421.538 291.821 420.657 291.282C418.422 289.917 417.21 286.084 414.288 286.561C412.422 286.865 411.18 285.43 409.816 284.435C409.899 284.398 409.983 284.365 410.07 284.332C412.263 283.489 413.517 281.705 415.078 280.113C416.458 278.707 416.895 279.085 417.263 281.894C417.316 282.309 417.248 282.745 417.301 283.16C417.674 285.99 418.076 286.36 419.49 284.916C424.441 279.854 429.4 276.038 436.13 281.001C437.133 281.742 438.44 281.758 439.405 280.763C439.663 280.812 439.933 280.841 440.211 280.874C441.267 281.005 442.449 281.137 443.308 281.783C444.55 282.716 445.489 284.213 446.67 285.29C448.076 286.569 449.456 282.733 451.196 285.315C452.279 286.923 453.852 286.15 454.829 284.476C455.011 284.164 454.969 283.58 454.901 283.152C454.662 281.635 453.848 281.17 452.598 281.084C450.436 280.936 448.092 281.725 446.211 279.706C444.505 277.876 442.472 278.493 440.526 278.431C440.568 278.246 440.602 278.053 440.632 277.847C440.921 275.803 442.145 277.711 442.954 277.962C444.379 278.402 445.834 275.446 447.324 277.979C447.385 278.082 448.464 277.555 448.855 277.074C450.641 274.87 452.674 273.221 455.311 273.797C458.112 274.405 460.487 271.86 463.093 272.398C464.351 272.658 465.457 274.068 466.867 272.991C470.347 270.334 474.611 269.351 477.609 265.658C478.62 264.416 479.79 263.746 481.287 263.68C485.995 263.483 489.86 260.925 493.196 257.08C494.097 256.044 495.157 256.015 496.038 256.636C497.243 257.483 498.094 258.248 499.576 256.94C502.715 254.177 506.298 252.836 510.261 253.305C512.195 253.535 513.601 252.869 513.825 250.081C513.909 249.028 514.798 248.695 515.307 249.39C517.033 251.738 519.609 247.137 521.418 250.64C521.82 251.417 523.834 250.525 524.024 248.411C522.132 248.161 520.772 246.4 520.631 244.731C520.445 242.527 522.561 243.452 523.713 243.374C525.719 243.238 526.84 241.61 527.836 239.924C528.816 238.262 529.238 236.013 530.408 234.656C531.841 232.994 533.885 232.143 535.504 230.675C537.407 228.952 536.047 225.716 537.404 223.696C538.494 222.072 540.026 220.773 540.789 218.971C541.523 217.24 540.93 215.069 541.735 213.005C543.024 209.702 545.691 206.861 545.224 202.876C544.703 198.435 547.405 194.943 547.299 190.843C547.177 186.061 548.241 181.689 550.122 177.791C551.862 174.184 550.464 170.01 551.866 166.897C553.363 163.575 557.418 162.74 558.295 158.048C558.88 154.927 559.412 155.071 556.927 154.355C552.466 153.072 551.482 151.731 551.604 147.072C551.638 145.814 551.315 144.177 551.843 143.375C553.621 140.682 552.003 137.47 553.238 134.451C554.362 131.692 554.013 127.769 553.633 124.471C553.207 120.79 555.624 118.303 555.601 114.865C555.548 107.265 555.723 99.6574 555.765 92.0578C555.78 89.5288 555.331 87.2917 554.036 85.0423C552.827 82.9409 553.203 80.2227 554.761 78.1418C556.167 76.2666 557.668 74.4942 559.067 72.6067C559.842 71.558 559.842 70.2339 559.169 69.177C557.258 66.1874 554.712 64.3944 551.604 64.5425C550.521 64.5918 549.67 64.9578 549.449 63.5555C549.191 61.9147 549.229 60.1834 549.274 58.5015C549.316 57.017 548.739 55.919 547.694 55.7093C545.425 55.261 545.106 53.5873 545.148 51.2433C545.216 47.1475 545.847 43.7096 549.833 42.7638C551.163 42.4471 551.159 41.2011 550.297 40.2306C548.788 38.5322 547.196 36.9243 545.566 35.3945C540.964 31.0643 535.77 27.9513 530.438 25.2659C528.269 24.1762 529.078 23.4277 529.72 21.8198C529.937 21.277 529.036 19.4306 528.352 19.1181C524.879 17.5389 521.547 15.1209 517.72 15.1785C514.863 15.2237 512.321 14.8289 509.938 12.6453C508.623 11.4363 506.875 10.8729 505.272 10.1944C504.649 9.9312 503.657 9.7996 503.228 10.2108C501.24 12.1313 498.968 10.5645 496.874 11.2142C491.513 12.8715 486.66 15.8652 481.846 19.0276C478.19 21.4292 474.535 23.5922 470.085 22.7574C467.365 22.2475 464.598 22.2352 462.087 24.5915C461.258 25.3688 459.047 25.2659 458.169 24.4558C455.342 21.8404 452.169 22.3914 449.156 22.6176C445.899 22.8644 443.574 21.6677 442.563 18.0571C441.373 13.8009 439.177 12.012 435.544 12.2999C434.986 12.3451 434.389 11.4445 433.793 11.0127C431.843 9.61455 430.042 9.8983 427.952 11.021C424.282 13.0031 420.429 14.4753 416.705 16.3464C413.384 18.016 408.801 20.3888 406.274 13.5911C405.579 11.7159 404.093 15.5527 403.09 14.0641C400.643 10.4329 397.626 9.41716 393.879 9.79138C390.06 10.1697 386.199 9.93531 382.358 10.0258C376.666 10.1615 374.792 10.7249 370.156 15.1497C368.367 16.8563 366.683 17.5883 364.502 17.6952C363.609 17.7363 362.807 19.2579 361.861 19.4841C360.79 19.739 359.999 17.0085 358.51 18.7891C357.404 20.1132 356.754 19.151 356.587 17.872C356.294 15.6226 355.629 15.0304 354.026 16.5191C353.521 16.9879 352.875 17.2346 352.282 17.5677C352.077 18.97 351.404 19.8089 350.26 20.0762C350.348 22.0584 351.393 22.6834 352.878 22.6834C359.612 22.6958 366.349 22.7081 373.082 22.7204C372.968 24.6532 371.619 24.6121 370.476 25.3276C367.774 27.0137 365.163 28.8765 362.226 29.9211C360.425 28.05 358.867 28.967 356.887 29.9046C355.071 30.7641 352.764 30.1308 350.678 30.1514C348.957 30.1678 347.274 30.0239 345.795 31.6153C344.348 33.178 342.509 29.5222 340.654 32.1746C339.788 33.4165 337.295 32.7832 335.916 33.7619C334.343 34.8764 333.146 33.0834 332.42 33.3795C330.843 34.0169 329.521 35.2958 327.628 35.1683C324.851 34.9792 322.054 35.1684 319.265 35.193C316.825 35.2095 314.386 35.193 311.946 35.2341C309.157 35.2794 306.3 35.8592 303.602 35.2917C300.866 34.716 298.852 39.1285 296.933 37.2944C293.942 34.4364 291.974 38.4006 289.371 37.8043C286.692 37.1875 283.808 37.6234 281.038 37.9112C278.002 38.2238 274.833 36.8832 271.949 39.4328C269.167 41.8961 266.804 38.8242 264.273 38.0387C263.958 37.94 263.456 37.9236 263.274 38.1498C260.705 41.308 257.392 40.6048 254.378 40.2676C250.772 39.8646 248.067 43.0722 244.426 42.809C238.179 42.3566 231.883 42.9118 225.609 42.846C222.577 42.8131 219.313 43.7178 216.763 40.5226C216.478 40.1648 215.126 40.3498 214.852 40.8022C212.922 43.9728 211.394 40.4444 209.688 40.4814C209.038 43.8864 206.595 42.554 204.843 42.8912C203.498 43.1503 202.119 42.9735 201.458 41.1106C201.028 39.9016 201.401 37.5329 199.197 39.1573C197.49 40.4156 195.705 41.5671 193.862 42.5006C193.007 42.9324 191.745 43.2202 191.198 41.7604C190.791 40.6747 190.704 39.4945 191.449 38.3389C191.992 37.4959 192.296 36.4308 192.672 35.4356C189.629 35.3863 186.201 36.2828 183.739 34.8147C178.985 31.9772 174.539 31.9608 169.926 34.095C168.76 34.6338 168.209 34.5515 167.472 33.6961C165.598 31.5207 162.577 33.6961 160.753 31.0232C160.062 30.0115 158.846 30.2377 157.919 30.9738C156.452 32.1376 155.016 33.4864 153.298 31.6482C151.216 29.4111 149.445 34.2266 147.902 32.2733C146.056 29.9375 144.095 32.9518 142.56 31.4508C140.272 29.2096 138.828 31.7469 136.974 32.4583C135.781 32.9189 134.147 32.5982 132.961 31.9566C131.631 31.237 130.765 30.9615 129.291 31.7963C128.12 32.4583 126.357 29.8676 124.947 32.1211C123.028 29.9663 121.353 31.8168 119.563 32.5324C116.576 33.7332 113.745 30.7106 110.835 31.8045C109.261 32.3925 107.92 29.7072 106.286 31.8826C105.374 33.0958 104.287 29.6579 102.832 31.3686C101.449 32.9971 99.6212 32.6845 97.8998 32.6311C95.4755 32.5529 93.1728 32.3802 91.1057 34.7201C90.3723 35.5508 88.0658 35.6248 87.2716 34.8517C84.8055 32.446 82.1114 32.7956 79.3451 32.8367C76.5598 32.8778 73.7593 32.5776 70.993 32.8408C67.9797 33.1328 64.6662 31.6482 62.0367 34.6995C59.6732 32.7174 56.9525 32.627 54.2432 32.6557C53.24 32.6681 52.1646 32.8819 51.2641 33.3754C50.8309 33.6098 50.6865 34.6091 50.4281 35.3123C50.3369 35.2712 50.2685 35.193 50.1773 35.156C50.1773 35.2794 50.1849 35.4028 50.1849 35.522C50.2571 35.4809 50.3293 35.4439 50.3977 35.3986C50.4091 35.3699 50.4167 35.337 50.4281 35.3082C52.8752 36.4555 54.2584 39.112 55.9949 41.2422C57.1577 42.6692 56.2913 44.5978 54.2546 45.2805C53.639 45.4861 52.974 45.4696 52.3318 45.5478C50.3027 48.5991 49.5199 48.7307 48.3572 45.7822C47.658 44.0139 47.3616 42.6445 45.8569 44.5937C43.7973 47.2626 41.9088 49.2694 38.8613 46.0906C38.0329 45.227 35.943 45.0584 34.9285 45.7082C29.2971 49.3229 23.7302 48.9116 18.076 46.0659C17.0691 45.5601 16.0469 45.2764 15.2072 46.2469C13.482 48.2372 11.3807 47.9041 9.30596 47.9C6.20527 47.8918 3.10838 47.8959 0.00769043 47.8959V625.077C0.980456 625.052 1.94942 625.024 2.91839 625.019C5.3579 625.003 7.79741 625.019 10.2369 624.978C13.026 624.933 15.8835 624.353 18.5814 624.921C21.3173 625.496 23.3313 621.084 25.2502 622.918C28.2407 625.776 30.209 621.812 32.8119 622.408C35.4908 623.025 38.3749 622.589 41.145 622.301C44.1811 621.989 47.3502 623.329 50.2343 620.78C53.0158 618.316 55.3793 621.388 57.91 622.174C58.2254 622.272 58.727 622.289 58.9094 622.063C61.4781 618.904 64.7916 619.608 67.8049 619.945C71.411 620.348 74.1165 617.14 77.7567 617.403C84.0037 617.856 90.3001 617.301 96.5737 617.366C99.606 617.399 102.87 616.495 105.42 619.69C105.705 620.048 107.057 619.863 107.331 619.41C109.261 616.24 110.789 619.768 112.495 619.731C113.145 616.326 115.588 617.658 117.34 617.321C118.685 617.062 120.064 617.239 120.726 619.102C121.155 620.311 120.783 622.68 122.987 621.055C124.693 619.797 126.479 618.645 128.322 617.712C129.177 617.28 130.438 616.992 130.985 618.452C131.392 619.538 131.479 620.718 130.734 621.874C130.191 622.717 129.887 623.782 129.511 624.777C132.555 624.826 135.982 623.93 138.444 625.402C143.198 628.239 147.644 628.256 152.257 626.122C153.423 625.583 153.974 625.665 154.712 626.52C156.585 628.696 159.606 626.52 161.43 629.193C162.121 630.205 163.337 629.979 164.264 629.243C165.731 628.079 167.168 626.73 168.885 628.568C170.967 630.805 172.738 625.99 174.281 627.943C176.128 630.279 178.088 627.265 179.624 628.766C181.911 631.007 183.355 628.47 185.209 627.758C186.402 627.298 188.036 627.618 189.222 628.26C190.552 628.98 191.418 629.255 192.893 628.42C194.063 627.758 195.826 630.349 197.236 628.095C199.155 630.25 200.831 628.4 202.62 627.684C205.607 626.483 208.438 629.506 211.349 628.412C212.922 627.824 214.263 630.509 215.897 628.334C216.809 627.121 217.896 630.559 219.351 628.848C220.734 627.219 222.562 627.532 224.283 627.586C226.708 627.664 229.01 627.836 231.077 625.496C231.811 624.666 234.117 624.592 234.912 625.365C237.378 627.771 240.072 627.421 242.838 627.38C245.623 627.339 248.424 627.643 251.19 627.376C254.203 627.084 257.517 628.568 260.146 625.517C262.51 627.499 265.231 627.59 267.94 627.561C268.947 627.549 270.018 627.335 270.919 626.841C271.352 626.607 271.497 625.607 271.755 624.904C269.308 623.757 267.921 621.1 266.188 618.97C265.025 617.543 265.892 615.615 267.932 614.932C268.548 614.726 269.213 614.743 269.855 614.665C271.884 611.613 272.667 611.482 273.83 614.43C274.529 616.199 274.825 617.568 276.33 615.619C278.39 612.95 280.278 610.943 283.326 614.122C284.154 614.985 286.244 615.154 287.258 614.504C292.89 610.89 298.457 611.301 304.111 614.146C305.118 614.652 306.14 614.936 306.98 613.966C308.705 611.975 310.806 612.308 312.881 612.312C320.564 612.329 328.244 612.292 335.927 612.37C337.455 612.386 338.45 611.013 339.67 610.68C340.696 610.4 342.011 611.646 343.196 612.226C344.386 612.81 346.449 614.163 346.62 613.871C348.372 610.914 351.309 616.281 352.723 612.465C357.218 612.596 361.55 606.835 366.258 612C366.793 612.588 368.754 612.448 369.195 611.798C371.532 608.328 373.937 613.665 375.499 611.885C378.463 608.5 380.427 613.624 382.989 612.539C383.418 612.358 384.197 613.11 384.717 613.591C385.439 614.258 385.295 618.045 384.33 619.435C383.304 620.907 382.312 623.12 380.332 620.71C379.831 620.101 379.204 620.533 379.059 621.651C378.896 622.959 379.246 624.481 380.279 624.732C386.336 626.196 392.781 622.618 398.686 626.738C398.781 626.804 399.662 625.805 399.731 625.225C399.997 622.992 400.745 622.149 402.144 624.041C403.876 626.381 405.78 627.779 408.486 627.446C412.19 626.993 416.139 628.823 419.585 625.69C419.665 625.62 420.649 626.483 420.706 626.993C420.945 629.161 421.591 630.012 423.199 628.457C424.475 627.22 425.752 627.141 426.877 628.498C428.355 630.275 429.256 627.849 430.244 627.989C431.467 628.157 432.307 629.897 433.895 629.987C436.924 630.16 440.184 628.971 442.852 632.08C443.247 632.545 444.873 632.031 445.606 631.41C449.79 627.865 454.453 627.207 459.389 627.289C461.752 627.331 464.564 628.494 466.468 626.377C469.504 622.996 471.503 627.771 474.067 627.224C475.587 623.662 478.339 628.289 480.284 625.821C481.017 624.888 483.389 624.477 484.152 625.184C486.827 627.664 488.857 626.817 491.695 625.34C494.059 624.111 497.406 624.255 499.929 625.237C502.65 626.298 504.911 625.768 507.499 625.427C508.783 625.258 510.094 627.248 511.922 625.566C513.632 623.991 514.977 626.648 516.539 627.162C518.659 627.861 520.015 624.345 522.299 625.287C522.618 625.418 522.896 625.727 523.177 625.973C524.336 626.993 525.647 627.947 526.931 626.693C529.705 623.987 532.965 625.332 535.99 624.871C538.042 624.559 540.181 625.135 542.252 624.917C543.898 624.744 544.639 628.067 546.713 626.159C548.324 624.674 550.243 623.601 552.132 622.671C553.029 622.231 554.184 622.544 555.225 622.531C558.018 622.494 560.822 622.268 563.6 622.486C566.636 622.725 568.627 620.064 571.162 618.937C572.4 618.386 571.405 618.814 570.903 618.23C569.041 616.071 571.538 614.476 571.07 613.09C569.509 608.48 567.996 603.446 562.456 604.474C561.81 604.594 561.1 604.339 560.442 604.137C560.131 604.039 559.876 603.66 559.595 603.405C559.834 603.15 560.062 602.698 560.317 602.677C563.421 602.414 566.655 602.801 569.6 601.847C572.875 600.786 575.87 597.829 579.111 601.711C580.627 599.457 582.69 599.675 584.811 599.626C588.257 599.544 591.7 599.1 594.69 601.843C597.901 599.544 601.044 597.089 604.357 595.028C605.619 594.247 606.808 594.88 607.481 596.986C608.085 598.886 611.927 600.276 612.466 599.096C613.903 595.966 616.961 593.137 615.749 589.247L615.723 589.263ZM518.913 538.994C520.502 538.472 521.19 539.471 521.334 541.223C521.399 541.182 521.467 541.145 521.532 541.104L521.353 541.347C521.353 541.301 521.338 541.268 521.334 541.223C520.555 541.704 519.73 542.107 519.062 542.749C518.336 543.448 517.91 543.522 517.565 542.539C517.451 542.21 517.401 541.836 517.367 541.474C517.242 540.072 517.929 539.315 518.91 538.99L518.913 538.994ZM575.189 460.881C575.516 461.132 575.626 461.794 575.778 462.382C575.877 462.415 575.98 462.44 576.071 462.481L575.87 462.736C575.835 462.629 575.809 462.502 575.778 462.382C575.292 462.218 574.749 462.107 574.513 461.716C574.122 461.075 574.62 460.441 575.193 460.877L575.189 460.881ZM553.409 468.765C553.481 468.629 553.576 468.485 553.637 468.357C553.754 468.366 553.887 468.349 554.009 468.349C554.131 468.349 554.248 468.362 554.328 468.431C554.883 468.904 554.739 469.484 553.914 469.912C553.815 469.965 553.424 469.439 553.314 469.11C553.283 469.024 553.336 468.9 553.409 468.765ZM565.998 449.239C566.222 449.507 566.446 449.774 566.666 450.041C566.431 450.292 566.195 450.543 565.956 450.794C565.743 450.679 565.53 450.564 565.317 450.448C565.542 450.045 565.766 449.642 565.994 449.243L565.998 449.239ZM528.117 306.107C528.466 306.374 528.584 307.082 528.744 307.711C528.846 307.744 528.96 307.772 529.055 307.818L528.843 308.089C528.805 307.974 528.778 307.838 528.744 307.715C528.223 307.542 527.646 307.419 527.395 307.007C526.977 306.325 527.509 305.646 528.117 306.115V306.107ZM504.892 314.512C504.972 314.368 505.071 314.212 505.135 314.077C505.261 314.085 505.401 314.068 505.534 314.068C505.667 314.068 505.789 314.081 505.876 314.155C506.465 314.66 506.313 315.277 505.435 315.734C505.329 315.787 504.911 315.232 504.793 314.878C504.763 314.788 504.82 314.656 504.896 314.512H504.892ZM492.079 305.761C492.219 305.708 492.535 306.308 492.767 306.609C492.512 306.888 492.147 307.468 492.014 307.398C490.946 306.843 490.973 306.189 492.083 305.761H492.079ZM482.777 306.226C483.651 305.046 486.922 305.042 487.876 306.222C487.986 306.358 487.964 306.839 487.85 307.007C487.618 307.345 487.302 307.756 486.983 307.809C486.257 307.929 485.505 307.846 484.806 307.846C484.095 307.567 483.419 307.324 482.765 307.003C482.689 306.966 482.663 306.387 482.777 306.23V306.226ZM468.36 297.282C468.394 297.187 468.432 297.097 468.466 296.998L468.668 297.233C468.569 297.253 468.466 297.265 468.36 297.282C468.162 297.858 467.98 298.45 467.725 298.988C467.672 299.1 467.019 298.98 467.007 298.902C466.829 297.475 467.604 297.393 468.356 297.282H468.36ZM461.946 296.994C461.98 297.093 462.022 297.187 462.056 297.286C462.82 297.348 463.568 297.442 463.424 298.857C463.416 298.939 462.763 299.075 462.71 298.972C462.451 298.442 462.261 297.858 462.056 297.286C461.95 297.278 461.843 297.265 461.741 297.257L461.946 296.998V296.994ZM520.844 238.92C521.136 239.188 521.425 239.459 521.718 239.726C521.505 239.965 521.288 240.199 521.076 240.438C520.886 240.174 520.696 239.907 520.502 239.644C520.616 239.401 520.73 239.163 520.844 238.92ZM233.342 613.127C233.483 613.201 233.521 613.229 233.342 613.127V613.127ZM88.8333 47.0858C88.6547 46.983 88.6927 47.0118 88.8333 47.0858V47.0858ZM537.423 461.724C537.206 462.041 536.91 462.428 536.609 462.477C535.929 462.588 535.223 462.51 534.565 462.51C533.9 462.247 533.262 462.02 532.654 461.72C532.582 461.683 532.559 461.14 532.665 460.996C533.486 459.89 536.556 459.886 537.445 460.992C537.548 461.12 537.529 461.572 537.423 461.728V461.724ZM461.175 436.002C460.909 436.495 460.57 437.454 460.392 437.412C459.453 437.199 458.556 436.726 457.644 436.347C458.214 435.977 458.784 435.611 459.354 435.241C459.962 435.496 460.567 435.751 461.175 436.002ZM431.384 297.854C431.615 297.878 431.904 297.804 432.064 297.944C432.6 298.409 432.451 298.968 431.631 299.354C431.528 299.404 431.159 298.886 431.053 298.565C431 298.405 431.262 298.092 431.384 297.849V297.854ZM494.515 496.778C494.477 496.654 494.993 496.288 495.259 496.025C495.495 496.317 495.977 496.757 495.928 496.872C495.438 498.048 494.895 498.011 494.515 496.778ZM525.7 454.918C526.034 454.779 526.365 454.651 526.699 454.544C526.365 454.75 526.038 454.902 525.7 454.918ZM541.325 462.099C540.322 461.576 540.349 460.964 541.386 460.565C541.519 460.515 541.811 461.079 542.032 461.358C541.792 461.617 541.45 462.164 541.325 462.099ZM546.808 455.013C544.095 455.219 541.386 455.383 538.81 454.059C541.557 453.973 544.289 453.771 546.808 455.013ZM535.553 454.211C534.865 454.676 534.143 454.968 533.433 455.062C534.09 454.573 534.805 454.33 535.553 454.211ZM507.761 414.959C507.909 414.898 508.152 415.165 508.35 415.284C508.346 415.531 508.43 415.86 508.331 416.008C508.319 416.024 508.308 416.037 508.297 416.053C507.947 416.004 507.598 415.946 507.252 415.876C507.21 415.79 507.168 415.695 507.126 415.589C507.092 415.502 507.51 415.07 507.765 414.959H507.761ZM479.577 394.011C479.611 394.11 479.634 394.225 479.665 394.332C479.779 394.373 479.9 394.41 480.018 394.447C479.912 394.451 479.805 394.455 479.699 394.464C479.688 394.418 479.676 394.377 479.665 394.332C479.577 394.303 479.482 394.279 479.399 394.242L479.577 394.015V394.011ZM475.853 395.134C476.306 394.83 476.792 394.608 477.275 394.365C477.282 394.242 477.29 394.118 477.297 393.991L477.51 394.237C477.43 394.279 477.354 394.324 477.275 394.365C477.271 394.468 477.263 394.575 477.256 394.677C477.157 394.682 477.058 394.69 476.959 394.694C476.534 394.706 476.176 395.035 475.831 395.409C475.823 395.27 475.827 395.155 475.853 395.138V395.134ZM468.113 389.406C468.273 389.352 468.421 389.319 468.565 389.294C467.896 389.591 467.251 390.084 466.616 390.763C466.874 390.068 467.422 389.632 468.113 389.406ZM449.6 297.566C449.748 297.599 449.878 297.742 450.003 297.923C450.128 298.1 450.25 298.31 450.375 298.474C450.246 298.602 450.117 298.725 449.988 298.853C449.828 299.009 449.669 299.165 449.509 299.317C449.277 298.997 448.852 298.66 448.867 298.355C448.882 298.055 449.38 297.52 449.593 297.566H449.6ZM442.893 343.582C443.144 343.891 443.661 344.359 443.608 344.487C443.087 345.741 442.502 345.704 442.099 344.384C442.061 344.253 442.608 343.862 442.893 343.582ZM435.807 295.242C436.038 295.255 436.331 295.168 436.494 295.304C437.03 295.748 436.89 296.299 436.088 296.698C435.989 296.747 435.628 296.241 435.51 295.925C435.457 295.781 435.696 295.477 435.803 295.242H435.807ZM420.797 275.454C420.66 275.606 420.527 275.721 420.402 275.709C420.151 275.684 419.927 275.158 419.691 274.849C419.961 274.611 420.242 274.175 420.501 274.191C420.622 274.2 420.744 274.327 420.858 274.487C420.976 274.648 421.09 274.841 421.208 274.981C421.071 275.113 420.934 275.298 420.797 275.45V275.454ZM384.641 23.1152C384.839 23.2262 385.037 23.3373 385.234 23.4483C385.021 23.8102 384.809 24.168 384.596 24.5257C384.391 24.279 384.185 24.0364 383.98 23.7896C384.201 23.5635 384.417 23.3373 384.638 23.1152H384.641ZM373.401 22.3914C373.561 21.7746 373.671 21.0796 374.017 20.7671C374.534 20.2983 375.07 20.9439 374.697 21.6512C374.481 22.0625 373.907 22.1982 373.401 22.3873C373.375 22.4984 373.352 22.6176 373.318 22.7163L373.124 22.4901C373.208 22.449 373.31 22.4202 373.401 22.3832V22.3914ZM185.901 37.9565C186.532 37.718 187.121 37.8619 187.592 38.2814C188.059 38.7008 188.405 39.3917 188.549 40.2511C188.337 40.9338 188.12 41.6205 187.907 42.3032C186.972 41.3656 186.007 40.4691 185.152 39.4369C185.061 39.3259 185.54 38.0922 185.901 37.9565ZM168.669 38.413C170.416 37.1052 173.149 37.7961 173.829 39.844C174.019 40.4197 173.551 41.3121 173.335 42.295C171.587 41.2587 169.877 40.2388 168.163 39.2231C168.327 38.9475 168.448 38.5774 168.669 38.413ZM123.34 41.6617C123.382 41.8097 122.899 42.1757 122.679 42.4183C122.436 42.1387 121.949 41.7275 121.995 41.6C122.443 40.3622 122.971 40.3827 123.34 41.6617ZM95.4109 43.2367C95.4907 43.1914 95.8441 43.6808 95.9467 43.9851C95.9999 44.1414 95.7719 44.4333 95.6731 44.6595C95.4565 44.6472 95.1829 44.7294 95.0347 44.602C94.5369 44.1702 94.6661 43.6397 95.4109 43.2326V43.2367ZM78.3837 40.8474C80.9942 43.6602 82.4724 41.0037 83.9961 39.0462C84.6573 38.1991 85.0069 38.0223 85.5958 38.8365C87.4654 41.419 89.1867 40.0949 90.9461 38.5692C91.0297 38.4952 92.067 39.5192 91.9986 39.7782C91.4134 42.0277 90.6877 44.2277 89.9657 46.4237C89.8441 46.7897 89.4451 47.3695 89.3235 47.3202C89.2019 47.2708 89.0803 47.2133 88.9815 47.1639C84.4065 44.4621 81.359 46.1646 78.6421 44.9227C78.1823 44.713 77.7681 43.6685 77.7301 42.9776C77.6883 42.2908 78.1481 41.563 78.3837 40.8557V40.8474ZM70.556 42.5294C71.069 41.7933 71.8973 41.382 72.5281 40.8721C73.5769 42.1716 73.3109 43.323 72.8853 44.3634C72.3191 45.7452 71.1184 45.5354 70.3204 45.1078C68.7093 44.2401 70.0848 43.2079 70.556 42.5335V42.5294ZM66.0645 40.8104C66.1595 40.7652 66.5129 41.2587 66.6155 41.5671C66.6687 41.7233 66.4255 42.0235 66.3153 42.2579C66.0987 42.2456 65.8252 42.3279 65.6808 42.2004C65.1526 41.7316 65.2856 41.1846 66.0645 40.8104ZM60.7257 44.018C60.7523 43.6109 60.7485 42.8131 60.8891 42.0523C60.9499 41.7151 61.3831 41.1558 61.5047 41.2052C61.9797 41.3985 62.7017 41.7192 62.7739 42.1305C62.9677 43.2778 63.0171 44.5238 62.8575 45.6753C62.7663 46.3373 62.1545 46.8966 61.7783 47.5011C61.4287 46.8637 61.0297 46.2551 60.7523 45.5766C60.6231 45.2558 60.7295 44.7952 60.7295 44.018H60.7257ZM136.278 622.256C135.648 622.495 135.059 622.351 134.588 621.931C134.12 621.516 133.774 620.821 133.63 619.961C133.843 619.279 134.059 618.592 134.272 617.909C135.207 618.847 136.172 619.743 137.023 620.776C137.114 620.887 136.636 622.12 136.275 622.256H136.278ZM153.511 621.8C151.763 623.107 149.031 622.416 148.351 620.368C148.161 619.793 148.628 618.9 148.845 617.917C150.593 618.954 152.302 619.97 154.016 620.989C153.849 621.265 153.731 621.635 153.511 621.8ZM198.839 618.551C198.798 618.403 199.28 618.037 199.501 617.794C199.744 618.074 200.23 618.485 200.185 618.612C199.736 619.85 199.208 619.83 198.839 618.551ZM226.768 616.976C226.689 617.021 226.335 616.532 226.233 616.227C226.179 616.071 226.407 615.779 226.506 615.549C226.723 615.561 226.996 615.479 227.145 615.606C227.642 616.038 227.513 616.569 226.768 616.972V616.976ZM243.796 619.365C241.185 616.552 239.707 619.209 238.183 621.166C237.522 622.013 237.172 622.19 236.583 621.376C234.714 618.793 232.993 620.118 231.233 621.643C231.15 621.717 230.112 620.693 230.181 620.434C230.766 618.185 231.492 615.985 232.214 613.789C232.335 613.423 232.734 612.843 232.856 612.892C232.977 612.942 233.099 612.999 233.198 613.049C237.773 615.75 240.82 614.048 243.537 615.29C243.997 615.499 244.411 616.544 244.449 617.235C244.491 617.922 244.031 618.649 243.796 619.357V619.365ZM251.623 617.683C251.11 618.419 250.282 618.83 249.651 619.34C248.599 618.041 248.868 616.889 249.294 615.849C249.86 614.467 251.061 614.677 251.859 615.105C253.47 615.972 252.095 617.005 251.623 617.679V617.683ZM256.115 619.402C256.02 619.447 255.666 618.954 255.564 618.645C255.511 618.489 255.754 618.189 255.864 617.955C256.081 617.967 256.354 617.885 256.499 618.012C257.027 618.481 256.894 619.028 256.115 619.406V619.402ZM261.454 616.194C261.427 616.602 261.431 617.399 261.29 618.16C261.229 618.497 260.796 619.057 260.675 619.007C260.2 618.814 259.478 618.493 259.405 618.082C259.212 616.935 259.162 615.689 259.322 614.537C259.413 613.875 260.025 613.316 260.401 612.711C260.751 613.349 261.15 613.957 261.427 614.636C261.556 614.957 261.45 615.417 261.45 616.194H261.454ZM397.542 620.352C397.409 621.561 396.569 622.404 395.33 622.165C394.145 621.935 393.605 621.109 393.602 619.702C393.602 618.925 393.605 618.148 393.609 617.371C393.545 617.387 393.503 617.428 393.431 617.44C393.431 617.375 393.415 617.325 393.415 617.264C391.318 617.58 391.751 620.348 390.668 621.647C389.783 622.712 387.67 621.964 387.343 620.492C386.435 616.449 388.179 614.171 391.762 614.841C392.792 615.035 393.412 615.923 393.415 617.26C393.484 617.247 393.533 617.218 393.609 617.214C393.609 617.264 393.609 617.317 393.609 617.366C395.083 617.009 395.638 615.746 395.786 614.019C395.817 613.669 396.296 613.049 396.345 613.081C396.801 613.365 397.55 613.739 397.572 614.138C397.686 616.203 397.766 618.312 397.542 620.352ZM400.798 619.538C400.722 619.583 400.335 619.057 400.236 618.732C400.179 618.547 400.411 618.23 400.513 617.975C400.73 617.979 401.019 617.872 401.156 618C401.699 618.501 401.574 619.09 400.798 619.538ZM401.19 614.146C400.886 613.883 400.582 613.624 400.278 613.361C400.491 613.118 400.7 612.876 400.912 612.633C401.102 612.901 401.296 613.164 401.49 613.431C401.391 613.669 401.289 613.908 401.19 614.151V614.146ZM407.574 618.987C407.209 619.632 406.764 619.468 406.449 618.522C406.407 618.403 406.814 617.979 407.064 617.844C407.182 617.778 407.429 618.066 407.585 618.177C407.585 618.464 407.672 618.806 407.57 618.991L407.574 618.987ZM409.683 613.863C409.299 614.476 408.843 614.327 408.497 613.439C408.463 613.353 408.877 612.917 409.132 612.802C409.272 612.736 409.515 612.999 409.702 613.106C409.702 613.365 409.789 613.698 409.686 613.863H409.683ZM411.506 621.619C411.172 621.162 410.553 620.702 410.538 620.212C410.515 619.497 410.921 618.756 411.149 618.029C411.525 618.506 412.012 618.917 412.251 619.48C412.635 620.385 412.331 621.133 411.51 621.619H411.506ZM415.835 560.888C415.531 560.613 415.23 560.341 414.93 560.066C415.143 559.815 415.36 559.564 415.572 559.313C415.766 559.585 415.96 559.86 416.158 560.136C416.051 560.386 415.945 560.637 415.838 560.892L415.835 560.888ZM423.829 563.528C423.617 563.236 423.404 562.944 423.191 562.652C423.438 562.401 423.719 561.916 423.928 561.957C424.061 561.982 424.175 562.118 424.289 562.278C424.403 562.443 424.51 562.636 424.624 562.784L423.829 563.528ZM457.242 581.589C456.345 582.075 455.285 582.268 454.521 582.955C452.925 584.39 452.199 582.737 451.245 581.853C450.995 581.618 450.638 581.067 450.71 580.89C450.934 580.348 451.295 579.583 451.686 579.5C452.64 579.307 453.67 579.426 456.497 579.435C456.466 579.426 456.44 579.418 456.413 579.41C455.722 579.344 455.969 579.299 456.413 579.41C456.504 579.418 456.535 579.426 456.668 579.435C456.603 579.435 456.565 579.435 456.501 579.435C456.565 579.455 456.622 579.459 456.687 579.488C457.181 579.69 457.553 580.327 457.979 580.771C457.736 581.051 457.534 581.437 457.245 581.594L457.242 581.589ZM476.427 581.166C475.242 581.898 474.033 582.585 472.821 583.263C470.488 584.571 469.781 584.304 467.718 581.339C467.497 581.026 467.159 580.603 467.209 580.315C467.258 580.023 467.718 579.636 468.003 579.632C470.686 579.599 473.368 579.62 476.051 579.694C476.332 579.702 476.602 580.154 476.876 580.397C476.727 580.66 476.629 581.038 476.423 581.166H476.427ZM488.009 581.766C487.017 581.955 485.984 581.816 483.567 581.816C483.617 581.816 482.268 581.766 480.926 581.602C480.645 581.569 480.143 580.952 480.174 580.886C480.421 580.339 480.751 579.435 481.082 579.418C483.449 579.295 485.824 579.282 488.188 579.418C488.705 579.447 489.195 580.216 489.7 580.64C489.138 581.03 488.606 581.651 488.009 581.766ZM504.668 583.999C504.124 583.662 503.585 583.325 503.041 582.988C503.619 582.663 504.204 582.075 504.774 582.091C505.348 582.112 505.91 582.737 506.477 583.099C505.872 583.399 505.272 583.699 504.668 583.999ZM511.682 584.016C510.805 583.814 509.961 583.374 509.106 583.016C509.642 582.671 510.178 582.326 510.71 581.98C511.28 582.219 511.846 582.457 512.416 582.696C512.165 583.16 511.85 584.057 511.682 584.02V584.016ZM610.68 596.566C610.483 596.46 610.281 596.353 610.084 596.242C610.296 595.863 610.505 595.489 610.718 595.111C610.927 595.362 611.136 595.612 611.345 595.863C611.125 596.098 610.901 596.332 610.68 596.566Z" fill="#D6070E"/>
<path d="M112.491 619.739C112.476 619.822 112.446 619.875 112.434 619.961C112.495 619.961 112.552 619.953 112.613 619.949C112.613 619.879 112.59 619.826 112.598 619.756C112.563 619.756 112.529 619.739 112.495 619.739H112.491Z" fill="#D6070E"/>
<path d="M271.752 624.912C271.843 624.954 271.911 625.032 272.003 625.069C272.003 624.945 271.995 624.822 271.995 624.703C271.923 624.744 271.851 624.781 271.782 624.826C271.771 624.855 271.763 624.888 271.752 624.917V624.912Z" fill="#D6070E"/>
<path d="M548.758 549.929C548.88 551.084 549.005 552.61 549.632 553.243C550.859 554.477 552.068 553.552 553.154 552.351C554.492 550.875 555.609 547.852 557.931 550.887C558.919 549.863 560.032 548.95 560.788 547.716C560.937 547.478 559.812 545.771 559.052 545.138C558.258 544.476 557.205 544.237 556.244 543.9C553.356 542.889 551.14 544.92 548.785 546.314C548.758 547.523 548.633 548.745 548.758 549.929Z" fill="#D6070E"/>
<path d="M583.903 615.031C582.603 614.965 582.083 617.839 580.498 616.363C579.374 615.314 578.196 614.229 576.847 615.368C575.737 616.305 574.783 617.613 573.997 618.962C573.727 619.423 574.115 620.512 574.308 621.273C574.369 621.52 574.909 621.857 574.977 621.791C577.971 618.744 581.589 620.179 584.933 619.636C585.951 619.472 586.434 618.148 586.183 616.807C585.909 615.273 584.982 615.084 583.907 615.031H583.903Z" fill="#D6070E"/>
<path d="M564.52 549.32C564.224 549.407 563.984 549.793 563.718 550.04C563.977 550.299 564.205 550.698 564.497 550.792C566.048 551.298 567.609 551.742 569.175 552.17C569.931 552.376 570.767 554.502 571.409 552.413C571.827 551.043 571.546 549.345 571.493 547.799C571.481 547.474 571.101 547.165 570.889 546.841C569.076 548.843 566.697 548.691 564.516 549.32H564.52Z" fill="#D6070E"/>
<path d="M297.351 624.09C296.132 622.198 294.35 622.478 292.632 622.478C292.138 622.869 291.61 623.284 291.085 623.703C291.34 623.979 291.56 624.337 291.853 624.522C293.32 625.451 294.771 626.45 296.31 627.178C296.838 627.429 297.842 627.244 298.199 626.775C299.198 625.468 297.861 624.871 297.355 624.09H297.351Z" fill="#D6070E"/>
<path d="M586.544 462.247C587.733 462.062 588.451 461.457 588.261 460.088C588.033 458.138 587.532 457.563 586.194 457.822C585.13 458.027 584.283 458.582 584.503 460.252C584.697 461.724 585.263 462.444 586.544 462.247Z" fill="#D6070E"/>
<path d="M585.678 553.005C586.403 553.025 587.483 551.627 587.783 550.611C587.973 549.962 587.133 548.712 586.563 547.943C586.225 547.486 585.51 547.441 584.967 547.207C584.754 547.951 584.538 548.691 584.313 549.472C584.549 550.792 583.766 552.956 585.681 553.005H585.678Z" fill="#D6070E"/>
<path d="M16.5142 632.668C15.5604 632.475 14.5345 632.496 13.5769 632.705C13.1171 632.804 12.7485 633.532 12.3381 633.972C12.5965 634.219 12.8283 634.589 13.1209 634.679C13.7365 634.864 14.3825 634.901 15.017 635C15.6478 634.93 16.2938 634.926 16.9094 634.757C17.1944 634.679 17.4148 634.276 17.6655 634.017C17.2856 633.544 16.9512 632.759 16.518 632.668H16.5142Z" fill="#D6070E"/>
<path d="M274.446 619.998C273.416 619.887 272.386 620.204 272.105 621.479C271.877 622.49 271.983 623.609 271.995 624.703C272.789 624.23 273.633 623.839 274.305 623.19C274.944 622.564 275.943 621.857 275.27 620.492C275.137 620.22 274.738 620.035 274.446 620.002V619.998Z" fill="#D6070E"/>
<path d="M112.613 619.949C112.556 621.701 113.665 622.606 114.589 623.576C114.95 623.954 115.615 624.09 116.12 624.033C116.713 623.967 116.72 621.545 116.135 620.817C115.117 619.554 113.844 619.883 112.613 619.949Z" fill="#D6070E"/>
<path d="M593.015 617.589C592.069 617.375 591.062 617.313 590.116 617.482C589.705 617.556 589.382 618.349 589.021 618.818C589.276 619.061 589.508 619.439 589.793 619.517C590.405 619.682 591.043 619.686 591.317 619.715C591.997 619.715 592.35 619.817 592.635 619.694C593.217 619.443 593.76 619.065 594.319 618.74C593.889 618.341 593.494 617.695 593.019 617.589H593.015Z" fill="#D6070E"/>
<path d="M67.2233 625.64C66.9992 626.372 66.5888 627.113 66.6154 627.828C66.6344 628.322 67.2575 628.782 67.5995 629.243C68.4241 628.749 68.7357 627.993 68.3519 627.084C68.1125 626.516 67.6109 626.113 67.2271 625.64H67.2233Z" fill="#D6070E"/>
<path d="M285.237 620.64C284.333 621.54 284.409 622.638 284.846 623.757C284.979 624.102 285.275 624.353 285.496 624.649C285.727 624.37 286.035 624.135 286.18 623.798C286.651 622.712 286.803 621.61 285.895 620.714C285.75 620.57 285.454 620.656 285.237 620.64Z" fill="#D6070E"/>
<path d="M549.788 516.348C549.514 516.492 549.309 516.833 549.073 517.08C549.875 517.458 550.666 517.935 551.494 518.137C551.688 518.182 552.037 517.277 552.296 516.833C551.547 515.665 550.662 515.887 549.784 516.344L549.788 516.348Z" fill="#D6070E"/>
<path d="M25.3679 633.113C25.1133 633.219 24.6991 633.659 24.7295 633.729C25.0867 634.593 25.5427 634.737 25.9378 634.141C26.0366 633.988 25.953 633.659 25.953 633.409C25.7631 633.302 25.5199 633.047 25.3679 633.113Z" fill="#D6070E"/>
<path d="M111.207 628.091C111.097 628.317 110.861 628.601 110.907 628.753C110.998 629.049 111.332 629.531 111.423 629.485C112.168 629.132 112.301 628.618 111.811 628.165C111.674 628.038 111.412 628.108 111.207 628.091Z" fill="#D6070E"/>
<path d="M41.5096 628.721C41.7376 629.017 41.9504 629.527 42.1974 629.551C42.4368 629.572 42.7066 629.099 42.965 628.84C42.7408 628.523 42.5128 628.207 42.2886 627.89C42.0302 628.17 41.7718 628.445 41.5134 628.725L41.5096 628.721Z" fill="#D6070E"/>
<path d="M129.085 625.089C129.192 625.077 129.302 625.061 129.408 625.048C129.442 624.962 129.473 624.872 129.503 624.785C129.401 624.785 129.29 624.797 129.188 624.793C129.154 624.892 129.119 624.991 129.085 625.089Z" fill="#D6070E"/>
<path d="M127.869 626.677C127.881 626.755 128.477 626.837 128.519 626.742C128.747 626.216 128.91 625.649 129.089 625.089C128.356 625.176 127.649 625.307 127.873 626.677H127.869Z" fill="#D6070E"/>
<path d="M279.112 622.959C278.846 623.066 278.417 623.531 278.447 623.613C278.812 624.53 279.287 624.686 279.693 624.061C279.796 623.901 279.709 623.564 279.709 623.288C279.526 623.177 279.268 622.893 279.112 622.959Z" fill="#D6070E"/>
<path d="M271.22 616.565C271.296 616.548 271.383 615.8 271.307 615.746C270.859 615.45 270.376 615.232 269.901 614.998C269.962 615.923 270.046 616.828 271.22 616.56V616.565Z" fill="#D6070E"/>
<path d="M578.784 567.283C578.693 567.497 578.461 567.797 578.515 567.974C578.606 568.286 578.974 568.792 579.05 568.751C579.807 568.336 579.936 567.78 579.419 567.303C579.286 567.18 579.009 567.287 578.784 567.287V567.283Z" fill="#D6070E"/>
<path d="M532.308 552.565C532.647 553.807 533.163 553.844 533.616 552.651C533.669 552.512 533.209 552.088 532.989 551.8C532.749 552.059 532.27 552.417 532.312 552.565H532.308Z" fill="#D6070E"/>
<path d="M591.746 550.85C591.963 550.616 592.339 550.394 592.35 550.147C592.362 549.9 592.008 549.625 591.818 549.361C591.602 549.727 591.381 550.089 591.165 550.455C591.358 550.587 591.552 550.718 591.746 550.85Z" fill="#D6070E"/>
<path d="M579.484 549.509C579.328 549.37 579.024 549.464 578.788 549.448C578.667 549.727 578.397 550.077 578.458 550.278C578.56 550.628 578.99 551.187 579.077 551.134C579.924 550.657 580.065 550.032 579.484 549.505V549.509Z" fill="#D6070E"/>
<path d="M561.567 519.605C561.982 519.741 562.396 519.876 562.81 520.008V519.276C562.62 519.169 562.384 518.918 562.232 518.976C561.982 519.079 561.784 519.383 561.567 519.601V519.605Z" fill="#D6070E"/>
<path d="M555.343 519.576C555.666 520.485 556.118 520.637 556.502 520.004C556.605 519.839 556.517 519.502 556.517 519.243C556.335 519.132 556.092 518.865 555.963 518.93C555.712 519.054 555.305 519.477 555.343 519.58V519.576Z" fill="#D6070E"/>
<path d="M545.479 517.828C545.71 517.845 545.969 517.388 546.216 517.142C545.995 516.829 545.779 516.517 545.558 516.204C545.311 516.484 545.065 516.763 544.814 517.043C545.034 517.327 545.247 517.812 545.479 517.828Z" fill="#D6070E"/>
<path d="M540.531 517.1C540.486 517.207 540.927 517.763 541.212 517.902C541.379 517.985 541.683 517.664 541.918 517.532C541.918 517.24 542.013 516.87 541.903 516.673C541.5 515.949 540.972 516.093 540.531 517.1Z" fill="#D6070E"/>
<path d="M562.213 513.975C561.959 514.061 561.753 514.37 561.529 514.584C561.947 514.728 562.369 514.872 562.787 515.015C562.802 514.777 562.817 514.543 562.833 514.304C562.624 514.185 562.38 513.917 562.217 513.975H562.213Z" fill="#D6070E"/>
<path d="M556.069 513.667C555.845 513.918 555.624 514.172 555.4 514.423C555.716 514.699 556.035 514.974 556.35 515.25C556.46 514.995 556.571 514.744 556.681 514.493C556.476 514.218 556.274 513.942 556.069 513.667Z" fill="#D6070E"/>
<path d="M559.599 415.638C559.576 415.917 559.99 416.246 560.211 416.555C560.443 416.267 560.674 415.979 560.91 415.691C560.705 415.379 560.488 415.054 560.272 414.729C560.032 415.029 559.626 415.313 559.603 415.642L559.599 415.638Z" fill="#D6070E"/>
<path d="M521.722 415.638C522.14 415.778 522.554 415.913 522.972 416.053C522.98 415.819 522.991 415.584 522.999 415.35C522.797 415.235 522.558 414.976 522.395 415.033C522.144 415.124 521.942 415.424 521.722 415.638Z" fill="#D6070E"/>
<path d="M515.874 412.57C515.786 412.8 515.57 413.096 515.623 413.286C515.707 413.598 516.075 414.104 516.132 414.067C516.85 413.631 516.972 413.072 516.478 412.586C516.356 412.467 516.083 412.57 515.874 412.57Z" fill="#D6070E"/>
<path d="M499.934 401.06C500.067 402.293 500.2 403.918 500.868 404.592C502.179 405.908 503.468 404.921 504.626 403.642C506.055 402.067 507.245 398.847 509.718 402.08C510.771 400.986 511.96 400.015 512.766 398.699C512.922 398.444 511.725 396.627 510.915 395.948C510.068 395.241 508.947 394.986 507.921 394.628C504.839 393.551 502.476 395.718 499.968 397.202C499.937 398.49 499.804 399.793 499.937 401.06H499.934Z" fill="#D6070E"/>
<path d="M524.089 403.708C524.534 402.248 524.234 400.435 524.181 398.786C524.169 398.436 523.763 398.111 523.538 397.766C521.604 399.9 519.07 399.74 516.744 400.41C516.429 400.5 516.174 400.916 515.893 401.179C516.167 401.454 516.41 401.878 516.725 401.981C518.378 402.52 520.042 402.992 521.711 403.449C522.516 403.671 523.409 405.937 524.093 403.704L524.089 403.708Z" fill="#D6070E"/>
<path d="M539.855 302.846C538.722 303.064 537.818 303.656 538.054 305.437C538.263 307.003 538.863 307.776 540.231 307.563C541.496 307.365 542.268 306.724 542.063 305.26C541.819 303.179 541.284 302.57 539.859 302.842L539.855 302.846Z" fill="#D6070E"/>
<path d="M539.304 404.341C540.079 404.362 541.231 402.873 541.55 401.788C541.755 401.093 540.858 399.764 540.246 398.942C539.885 398.457 539.125 398.403 538.544 398.161C538.316 398.954 538.088 399.744 537.849 400.574C538.099 401.985 537.263 404.288 539.304 404.341Z" fill="#D6070E"/>
<path d="M501.032 365.25C500.739 365.402 500.523 365.764 500.268 366.031C501.123 366.434 501.963 366.944 502.852 367.158C503.057 367.207 503.43 366.241 503.707 365.768C502.905 364.522 501.963 364.761 501.032 365.25Z" fill="#D6070E"/>
<path d="M531.951 419.565C531.856 419.791 531.609 420.112 531.662 420.301C531.761 420.634 532.153 421.177 532.236 421.132C533.042 420.692 533.179 420.096 532.628 419.586C532.487 419.454 532.191 419.565 531.951 419.565Z" fill="#D6070E"/>
<path d="M545.771 402.043C546.003 401.792 546.402 401.553 546.414 401.29C546.425 401.027 546.049 400.735 545.844 400.455C545.612 400.842 545.38 401.232 545.148 401.623C545.353 401.763 545.562 401.903 545.768 402.043H545.771Z" fill="#D6070E"/>
<path d="M532.696 400.611C532.529 400.459 532.206 400.562 531.955 400.546C531.826 400.846 531.537 401.216 531.602 401.43C531.712 401.8 532.168 402.396 532.263 402.343C533.167 401.837 533.315 401.167 532.696 400.607V400.611Z" fill="#D6070E"/>
<path d="M513.594 368.725C514.035 368.869 514.476 369.013 514.92 369.157V368.375C514.719 368.26 514.464 367.993 514.305 368.059C514.035 368.17 513.83 368.49 513.594 368.725Z" fill="#D6070E"/>
<path d="M506.956 368.692C507.301 369.662 507.78 369.823 508.194 369.148C508.301 368.972 508.21 368.614 508.21 368.338C508.012 368.219 507.757 367.935 507.617 368.005C507.347 368.137 506.914 368.589 506.956 368.696V368.692Z" fill="#D6070E"/>
<path d="M496.438 366.829C496.685 366.845 496.958 366.36 497.224 366.097C496.989 365.764 496.757 365.427 496.521 365.094C496.255 365.394 495.993 365.69 495.727 365.99C495.963 366.29 496.187 366.813 496.438 366.829Z" fill="#D6070E"/>
<path d="M491.16 366.052C491.11 366.167 491.582 366.755 491.886 366.907C492.064 366.998 492.391 366.656 492.642 366.512C492.642 366.2 492.741 365.809 492.623 365.595C492.193 364.826 491.631 364.978 491.16 366.052Z" fill="#D6070E"/>
<path d="M514.282 362.721C514.012 362.811 513.792 363.14 513.552 363.371C514.001 363.523 514.445 363.675 514.894 363.831C514.909 363.58 514.924 363.325 514.939 363.075C514.715 362.947 514.46 362.663 514.282 362.725V362.721Z" fill="#D6070E"/>
<path d="M507.731 362.396C507.492 362.667 507.256 362.935 507.017 363.202C507.355 363.494 507.693 363.79 508.027 364.082C508.145 363.811 508.263 363.543 508.381 363.272C508.164 362.98 507.948 362.684 507.727 362.392L507.731 362.396Z" fill="#D6070E"/>
<path d="M424.605 289.769C424.301 289.855 424.172 290.863 423.99 291.59C424.651 291.59 425.312 291.59 425.973 291.59C425.912 290.55 425.84 289.427 424.605 289.773V289.769Z" fill="#D6070E"/>
<path d="M457.846 282.095C458.181 282.367 458.519 282.642 458.853 282.914C458.967 282.671 459.081 282.428 459.195 282.182C458.982 281.906 458.777 281.429 458.553 281.413C458.329 281.396 458.082 281.848 457.846 282.091V282.095Z" fill="#D6070E"/>
<path d="M511.496 257.861C511.474 258.162 511.914 258.511 512.15 258.84C512.397 258.532 512.644 258.227 512.895 257.919C512.674 257.586 512.443 257.24 512.211 256.891C511.956 257.212 511.523 257.516 511.496 257.861Z" fill="#D6070E"/>
</svg>
