<svg width="55" height="55" viewBox="0 0 55 55" fill="none" xmlns="http://www.w3.org/2000/svg">
<path d="M27.4989 55C12.3356 55 0 42.6639 0 27.5C0 12.3361 12.3356 0 27.4989 0C42.6622 0 54.9978 12.3383 54.9978 27.5C54.9978 42.6617 42.66 55 27.4989 55Z" fill="#EAEAEA"/>
<path fill-rule="evenodd" clip-rule="evenodd" d="M23.9878 28.3293V42.4484C23.9878 42.6507 24.1523 42.8152 24.3546 42.8152H29.5965C29.801 42.8152 29.9633 42.6507 29.9633 42.4484V28.1004H33.7646C33.9558 28.1004 34.1137 27.9536 34.1314 27.7647L34.4982 23.4407C34.516 23.2273 34.3471 23.0428 34.1314 23.0428H29.9655V19.9748C29.9655 19.2546 30.5479 18.6721 31.2682 18.6721H34.1981C34.4004 18.6721 34.5649 18.5076 34.5649 18.3053V13.9813C34.5649 13.7768 34.4004 13.6145 34.1981 13.6145H29.2474C26.3419 13.6145 23.9878 15.9688 23.9878 18.8744V23.0428H21.3668C21.1623 23.0428 21 23.2073 21 23.4096V27.7335C21 27.9381 21.1645 28.1004 21.3668 28.1004H23.9878V28.3316V28.3293Z" fill="#4C4C4C"/>
</svg>
