<svg width="57" height="56" viewBox="0 0 57 56" fill="none" xmlns="http://www.w3.org/2000/svg">
<path d="M32.5908 25.7559C33.6022 27.5501 34.3495 29.4515 34.7872 31.0134C35.0437 31.9331 35.2324 32.891 35.091 33.8298C34.9495 34.7685 34.4242 35.6848 33.5525 36.1127C32.6354 36.5626 31.4829 36.3955 30.5761 35.8976C29.6692 35.3996 28.9684 34.6175 28.343 33.8119C26.5549 31.5077 25.2151 28.8783 24.4227 26.1118C23.984 24.581 23.7146 22.9285 24.2425 21.4397C24.409 20.9667 24.6714 20.5033 25.0988 20.2261C25.6991 19.8358 26.5199 19.8866 27.1879 20.1751C29.3959 21.1302 31.232 23.3476 32.5908 25.7559Z" fill="#2B8936"/>
<path d="M40.3453 11.3473C39.8669 10.5017 39.5813 9.53931 40.0346 8.73365C40.6862 7.57679 42.3883 7.54449 43.7313 7.82722C48.2102 8.77184 52.2415 11.6408 54.5141 15.5037C57.5694 20.6943 50.4439 19.4777 47.6692 18.0223C44.909 16.5752 42.5098 14.4785 40.7427 11.9693C40.6043 11.7729 40.4686 11.5641 40.3453 11.3473Z" fill="#2B8936"/>
<path d="M8.63498 30.3425C9.175 31.023 9.53414 31.8804 9.80476 32.7062C10.8197 35.8122 11.1694 39.1379 10.5655 42.3198C10.2589 43.9332 8.88309 47.781 6.40781 46.3226C5.73056 45.9223 5.2994 45.2279 4.94844 44.5397C3.52589 41.7596 2.80391 38.3431 2.95559 35.2711C3.0675 32.9889 5.46453 26.3552 8.63758 30.3431L8.63498 30.3425Z" fill="#2B8936"/>
</svg>
