<svg width="33" height="82" viewBox="0 0 33 82" fill="none" xmlns="http://www.w3.org/2000/svg">
<path d="M29.2147 76.4982C29.4224 76.2437 29.5595 75.9329 29.6559 75.616C30.6219 72.4216 27.8038 68.5945 29.6925 65.8441C31.9158 68.7472 32.8841 72.5848 32.304 76.2024C32.0526 77.7661 31.4709 79.3672 30.2398 80.3615C28.7105 81.5985 26.5482 81.6309 24.6033 81.3698C21.9144 81.0094 19.2888 80.1914 16.865 78.9714C16.08 78.5753 16.4056 77.3861 17.2825 77.4527L22.272 77.8275C22.9711 77.8796 23.407 77.0838 22.9886 76.5216C15.7986 66.8671 6.37081 58.5361 2.38531 47.1963C-0.429904 39.1855 -0.198429 30.2694 2.23362 22.1242C3.63447 17.4314 5.74505 12.9721 8.32456 8.8161C9.61906 6.73134 11.0354 4.7246 12.5425 2.78852C13.187 1.96175 13.8966 0.717295 14.8161 0.197209C14.8533 0.175912 14.8955 0.156957 14.9425 0.140347C15.9289 -0.206031 16.7685 0.949968 16.1773 1.81285C11.9367 7.98776 7.96954 14.3977 5.4558 21.4387C2.64211 29.321 1.7692 38.1493 4.54728 46.0309C8.43337 57.0517 18.6152 64.5061 24.7242 74.46C25.2096 75.2518 25.6933 76.085 26.4501 76.6212C27.2069 77.1575 28.3335 77.3048 29.0303 76.6884C29.0961 76.6296 29.1581 76.5659 29.2135 76.4976L29.2147 76.4982Z" fill="#2B8936"/>
</svg>
