<svg width="55" height="55" viewBox="0 0 55 55" fill="none" xmlns="http://www.w3.org/2000/svg">
<path d="M27.4989 55C12.3356 55 0 42.6639 0 27.5C0 12.3361 12.3356 0 27.4989 0C42.6622 0 54.9978 12.3383 54.9978 27.5C54.9978 42.6617 42.66 55 27.4989 55Z" fill="#EAEAEA"/>
<path d="M19.7 40.4999H13.2V20.9999H19.7V40.4999ZM16.4513 18.3999C14.6534 18.3999 13.2 16.9426 13.2 15.1486C13.2 13.3546 14.656 11.8999 16.4513 11.8999C18.2427 11.8999 19.7 13.3572 19.7 15.1486C19.7 16.9426 18.2427 18.3999 16.4513 18.3999ZM43.1 40.4999H36.8509V31.0099C36.8509 28.7466 36.808 25.8359 33.6022 25.8359C30.3483 25.8359 29.8478 28.3007 29.8478 30.8461V40.4999H23.6V20.9856H29.5982V23.6519H29.6827C30.5173 22.1179 32.5569 20.5007 35.5989 20.5007C41.9299 20.5007 43.1 24.5424 43.1 29.797V40.4999Z" fill="#4C4C4C"/>
</svg>
