<svg width="55" height="55" viewBox="0 0 55 55" fill="none" xmlns="http://www.w3.org/2000/svg">
<g clip-path="url(#clip0_101_6)">
<path d="M27.4989 55C12.3356 55 0 42.6639 0 27.5C0 12.3361 12.3356 0 27.4989 0C42.6622 0 54.9978 12.3383 54.9978 27.5C54.9978 42.6617 42.66 55 27.4989 55Z" fill="#EAEAEA"/>
<path d="M39.8857 33.5714C39.8857 37.0595 37.058 39.8873 33.5678 39.8873H21.4301C17.9421 39.8873 15.1144 37.0595 15.1144 33.5714V21.4309C15.1144 17.9429 17.9421 15.1151 21.4301 15.1151H33.5678C37.0557 15.1151 39.8857 17.9429 39.8857 21.4309V33.5714ZM42.7667 21.4309C42.7667 16.3511 38.6496 12.2339 33.57 12.2339H21.4323C16.3526 12.2339 12.2356 16.3511 12.2356 21.4309V33.5714C12.2356 38.6512 16.3526 42.7684 21.4323 42.7684H33.57C38.6496 42.7684 42.7667 38.6512 42.7667 33.5714V21.4309ZM27.5523 32.5265C24.8891 32.5265 22.7239 30.3612 22.7239 27.6957C22.7239 25.0302 24.8891 22.8671 27.5523 22.8671C30.2155 22.8671 32.3829 25.0324 32.3829 27.6957C32.3829 30.359 30.2177 32.5265 27.5523 32.5265ZM27.5523 20.1571C23.3952 20.1571 20.014 23.5385 20.014 27.6957C20.014 31.8529 23.3952 35.2365 27.5523 35.2365C31.7093 35.2365 35.0928 31.8551 35.0928 27.6957C35.0928 23.5362 31.7116 20.1571 27.5523 20.1571ZM35.533 17.8539C34.5415 17.8539 33.7367 18.6587 33.7367 19.6502C33.7367 20.6417 34.5393 21.4443 35.533 21.4443C36.5266 21.4443 37.3269 20.6417 37.3269 19.6502C37.3269 18.6587 36.5244 17.8539 35.533 17.8539Z" fill="#4C4C4C"/>
</g>
<defs>
<clipPath id="clip0_101_6">
<rect width="55" height="55" fill="white"/>
</clipPath>
</defs>
</svg>
