<svg width="44" height="84" viewBox="0 0 44 84" fill="none" xmlns="http://www.w3.org/2000/svg">
<path d="M3.85602 75.9374C3.81227 75.611 3.82693 75.2704 3.86557 74.9705C4.27924 71.7422 4.85821 68.5635 5.59982 65.4502C4.8767 64.6302 3.71973 65.3068 3.21099 66.0553C1.07986 69.1929 -1.54455 75.7997 2.26512 79.9491C3.73581 81.5508 5.90696 82.2638 7.93096 82.6762C11.3877 83.3812 14.853 83.4719 18.1045 82.957C18.8754 82.8343 18.7033 81.7152 17.8849 81.521C15.3726 80.9231 12.86 80.323 10.3478 79.7251C9.95731 79.6316 9.76495 79.153 10.0257 78.9231C17.8757 71.9956 28.4355 68.1465 35.3818 60.2406C41.4216 53.3674 44.1396 43.79 43.6746 33.8495C43.2087 23.9101 39.6736 13.6432 34.248 4.23864C33.756 3.38477 32.16 0.430608 30.956 0.385072C29.4438 0.328223 30.6225 2.89881 31.0468 3.77509C34.6462 11.2065 37.9579 18.8355 39.6802 26.5929C41.3994 34.3387 41.457 42.2783 38.6781 48.8864C35.9644 55.3383 30.7 60.182 25.2087 64.281C21.1843 67.2854 16.9295 70.0142 12.6774 72.74C10.4143 74.1913 8.14993 75.6416 5.88595 77.094C5.5637 77.3012 5.1257 77.3485 4.7082 77.1775C4.15987 76.9525 3.93052 76.4634 3.85816 75.9374L3.85602 75.9374Z" fill="#D6070E"/>
</svg>
