<svg width="51" height="47" viewBox="0 0 51 47" fill="none" xmlns="http://www.w3.org/2000/svg">
<path d="M21.942 26.0422C20.5357 24.4647 19.381 22.7311 18.6144 21.2733C18.1644 20.4148 17.7767 19.5056 17.7341 18.5523C17.6915 17.5991 18.0502 16.5949 18.8652 16.0064C19.7226 15.3877 20.9474 15.3329 21.9848 15.6513C23.0223 15.9698 23.904 16.6079 24.7124 17.2835C27.0239 19.2163 28.9376 21.5553 30.3129 24.134C31.0743 25.5608 31.6851 27.14 31.4388 28.7096C31.3618 29.208 31.1838 29.7153 30.7979 30.0703C30.2558 30.5699 29.3972 30.6762 28.6488 30.5189C26.1745 29.9974 23.8308 28.1595 21.942 26.0422Z" fill="#E42226"/>
<path d="M16.8248 41.7376C17.4894 42.4807 17.9781 43.3759 17.6716 44.2573C17.2308 45.523 15.478 45.8793 14.033 45.8564C9.21367 45.7781 4.4699 43.7159 1.34404 40.3376C-2.85784 35.7983 4.7518 35.6404 7.9125 36.5475C11.0565 37.4492 13.958 39.0607 16.289 41.1996C16.4715 41.367 16.6538 41.5472 16.8248 41.7376Z" fill="#E42226"/>
<path d="M45.7803 16.9497C45.0853 16.3812 44.5417 15.6037 44.0959 14.8404C42.4222 11.9692 41.3919 8.75432 41.3762 5.49968C41.3686 3.84919 42.0169 -0.209708 44.8686 0.757386C45.6491 1.02329 46.2344 1.6263 46.7356 2.23842C48.765 4.71042 50.1984 7.94386 50.6594 11.004C51.0027 13.2771 49.8592 20.2796 45.7775 16.9496L45.7803 16.9497Z" fill="#E42226"/>
</svg>
