<svg width="617" height="582" viewBox="0 0 617 582" fill="none" xmlns="http://www.w3.org/2000/svg">
<path d="M291.972 27.8881C292.019 27.8279 292.054 27.7841 292.1 27.7184C292.042 27.691 291.99 27.6637 291.932 27.6363C291.937 27.7239 291.943 27.806 291.955 27.8936C291.961 27.8936 291.972 27.8936 291.978 27.8936L291.972 27.8881Z" fill="#2B8936"/>
<path d="M56.864 81.1213C56.864 81.0884 56.8524 81.0556 56.8524 81.0228C56.8 81.0501 56.7477 81.083 56.7012 81.1103C56.7012 81.1432 56.7012 81.176 56.7012 81.2089C56.7535 81.1815 56.8117 81.1541 56.8698 81.1268L56.864 81.1213Z" fill="#2B8936"/>
<path d="M615.212 2.00711C614.74 2.0401 614.24 1.34177 613.733 1.00635C612.091 -0.0823815 610.571 0.137565 608.807 1.01185C605.709 2.55148 602.46 3.7007 599.322 5.15784C596.521 6.45552 592.655 8.30307 590.524 3.01336C589.936 1.55622 588.684 4.54199 587.84 3.38177C585.778 0.555463 583.228 -0.236344 580.072 0.055085C576.852 0.352013 573.591 0.165058 570.354 0.236541C565.55 0.341015 563.972 0.780908 560.065 4.22307C558.557 5.55374 557.137 6.1256 555.297 6.20259C554.545 6.23558 553.87 7.41779 553.072 7.59375C552.17 7.7917 551.5 5.66372 550.248 7.05488C549.317 8.08863 548.769 7.33531 548.63 6.34005C548.379 4.59148 547.82 4.12409 546.469 5.28981C546.044 5.65822 545.497 5.84517 544.996 6.10911C544.827 7.20334 544.257 7.85218 543.29 8.06113C543.366 9.60626 544.245 10.0901 545.497 10.0901C551.18 10.1011 556.857 10.1066 562.54 10.1176C562.441 11.6243 561.306 11.5913 560.345 12.1466C558.068 13.4608 555.867 14.907 553.387 15.7263C551.867 14.2691 550.551 14.9839 548.886 15.7098C547.354 16.3806 545.41 15.8857 543.645 15.9022C542.196 15.9132 540.775 15.8032 539.529 17.0404C538.306 18.2556 536.757 15.4128 535.191 17.4748C534.457 18.4426 532.361 17.9477 531.191 18.712C529.863 19.5808 528.856 18.1842 528.244 18.4151C526.917 18.91 525.799 19.9052 524.204 19.8063C521.857 19.6578 519.499 19.8063 517.146 19.8228C515.091 19.8393 513.03 19.8228 510.974 19.8558C508.622 19.8887 506.211 20.3396 503.935 19.8997C501.623 19.4544 499.929 22.8855 498.31 21.4559C495.789 19.2289 494.124 22.3192 491.928 21.8518C489.669 21.3734 487.235 21.7088 484.9 21.9342C482.338 22.1762 479.666 21.1314 477.238 23.122C474.891 25.041 472.9 22.6491 470.763 22.0332C470.495 21.9562 470.076 21.9452 469.919 22.1157C467.753 24.5736 464.958 24.0292 462.413 23.7653C459.368 23.4519 457.086 25.9483 454.017 25.7448C448.747 25.3929 443.437 25.8273 438.144 25.7723C435.588 25.7448 432.834 26.4486 430.68 23.9633C430.441 23.6828 429.3 23.8313 429.067 24.1777C427.436 26.6466 426.15 23.9028 424.711 23.9248C424.164 26.5751 422.103 25.5359 420.624 25.7998C419.488 26.0033 418.324 25.8603 417.771 24.4141C417.41 23.4739 417.724 21.6263 415.867 22.8965C414.429 23.8753 412.921 24.7716 411.366 25.5029C410.644 25.8383 409.578 26.0637 409.118 24.9255C408.775 24.0787 408.699 23.1604 409.328 22.2642C409.788 21.6098 410.038 20.7795 410.359 20.0042C407.791 19.9657 404.903 20.6641 402.824 19.5203C398.812 17.3099 395.062 17.2989 391.173 18.9595C390.189 19.3774 389.723 19.3169 389.1 18.6515C387.516 16.958 384.972 18.6516 383.434 16.5676C382.852 15.7812 381.822 15.9572 381.047 16.5291C379.813 17.4363 378.596 18.4866 377.152 17.0514C375.393 15.3084 373.903 19.0585 372.598 17.5408C371.038 15.7208 369.384 18.0687 368.092 16.8975C366.159 15.1544 364.942 17.1284 363.381 17.6838C362.374 18.0412 361 17.7938 359.998 17.2934C358.88 16.7325 358.147 16.5181 356.901 17.1669C355.917 17.6838 354.426 15.6658 353.238 17.4199C351.619 15.7428 350.204 17.1834 348.696 17.7388C346.175 18.6735 343.788 16.3201 341.336 17.1724C340.009 17.6288 338.879 15.5393 337.499 17.2329C336.731 18.1787 335.817 15.5008 334.588 16.8315C333.418 18.0962 331.88 17.8542 330.425 17.8158C328.381 17.7553 326.436 17.6233 324.695 19.4434C324.078 20.0867 322.128 20.1472 321.458 19.5478C319.379 17.6728 317.103 17.9477 314.773 17.9807C312.427 18.0137 310.063 17.7773 307.728 17.9807C305.184 18.2062 302.394 17.0514 300.176 19.4269C298.185 17.8817 295.891 17.8103 293.602 17.8322C292.752 17.8432 291.85 18.0082 291.087 18.3931C290.72 18.5746 290.598 19.3554 290.382 19.8997C290.307 19.8668 290.248 19.8063 290.173 19.7788C290.173 19.8723 290.173 19.9712 290.178 20.0647C290.237 20.0317 290.301 20.0042 290.359 19.9712C290.371 19.9492 290.376 19.9217 290.382 19.8997C292.443 20.796 293.614 22.8635 295.081 24.5186C296.059 25.6293 295.332 27.1305 293.614 27.6639C293.096 27.8233 292.537 27.8123 291.989 27.8728C290.277 30.2482 289.619 30.3527 288.635 28.0543C288.047 26.6796 287.797 25.6129 286.528 27.1305C284.792 29.209 283.197 30.7706 280.629 28.2962C279.931 27.6254 278.166 27.4934 277.31 27.9993C277.217 28.0543 277.118 28.1037 277.025 28.1587C276.268 27.6693 275.412 27.169 274.743 26.8226C271.715 25.2719 269.17 24.5516 269.624 25.4919C269.933 26.1297 270.969 27.07 268.623 26.0472C262.23 23.2649 261.572 23.089 265.717 26.6136C270.137 30.3692 266.422 28.9285 264.995 29C265.042 29.033 265.094 29.0715 265.141 29.1045C264.984 29.0495 264.821 28.9945 264.663 28.934C264.681 28.9065 264.698 28.8846 264.71 28.8571C263.01 27.8123 261.298 26.7236 259.615 25.7778C259.027 25.4479 258.398 25.4314 258.037 25.4424C257.938 25.4424 258.666 26.1077 259.12 26.3992C259.935 26.916 260.762 27.4274 261.595 27.9388C261.269 27.9773 260.96 28.1202 260.669 28.4227C260.308 28.8076 259.924 29.0825 259.528 29.275C259.464 29.2475 259.4 29.22 259.33 29.1925C257.886 28.5711 256.896 28.4282 255.697 28.0708C256.541 28.7581 257.1 29.2915 257.461 29.7203C256.873 29.7423 256.279 29.7094 255.685 29.7094C249.204 29.6929 242.724 29.7258 236.249 29.6654C234.962 29.6544 234.118 30.7211 233.093 30.9795C232.225 31.1995 231.119 30.2262 230.118 29.7753C229.116 29.3244 227.375 28.2687 227.229 28.4941C225.751 30.7926 223.27 26.6191 222.082 29.5884C218.292 29.4894 214.635 33.9708 210.664 29.9513C210.21 29.4949 208.556 29.5994 208.189 30.1053C206.215 32.8106 204.189 28.6481 202.873 30.0393C200.375 32.6731 198.716 28.6811 196.556 29.5279C196.195 29.6709 195.537 29.0825 195.1 28.7086C194.489 28.1917 194.611 25.2389 195.426 24.1612C196.294 23.0175 197.126 21.2909 198.797 23.1659C199.222 23.6388 199.752 23.3034 199.869 22.4346C200.008 21.4174 199.712 20.2297 198.844 20.0372C193.737 18.899 188.299 21.6813 183.321 18.4756C183.239 18.4261 182.5 19.2014 182.441 19.6523C182.214 21.3899 181.586 22.0442 180.409 20.5761C178.948 18.756 177.341 17.6673 175.058 17.9257C174.429 17.9972 173.789 17.9917 173.148 17.9697C172.438 17.7278 171.71 17.5133 171.198 17.3814C170.953 17.3154 171.023 17.5518 171.244 17.8597C169.335 17.7608 167.436 17.8322 165.695 19.2949C165.631 19.3499 164.799 18.679 164.752 18.2776C164.554 16.5896 164.001 15.9242 162.65 17.1394C161.573 18.1017 160.496 18.1622 159.547 17.1064C158.301 15.7208 157.544 17.6123 156.705 17.5023C155.675 17.3704 154.964 16.0177 153.625 15.9462C151.069 15.8087 148.321 16.738 146.073 14.3186C145.741 13.9557 144.367 14.3571 143.75 14.841C140.221 17.6013 136.285 18.1127 132.122 18.0467C130.125 18.0137 127.755 17.1064 126.154 18.756C123.592 21.3844 121.909 17.6728 119.743 18.0962C118.462 20.8675 116.139 17.2659 114.502 19.1904C113.885 19.9162 111.882 20.2407 111.242 19.6853C108.988 17.7553 107.277 18.4151 104.878 19.5643C102.88 20.5211 100.062 20.4111 97.9311 19.6468C95.637 18.822 93.733 19.2344 91.5495 19.4983C90.4665 19.6303 89.3602 18.0797 87.8171 19.3884C86.3731 20.6146 85.2435 18.5471 83.9218 18.1457C82.1342 17.6013 80.9871 20.3396 79.0657 19.6083C78.7978 19.5038 78.5649 19.2674 78.3262 19.0749C77.348 18.2831 76.2417 17.5408 75.1586 18.5141C72.8179 20.6201 70.0696 19.5753 67.5193 19.9327C65.79 20.1747 63.9849 19.7293 62.2381 19.8942C60.8465 20.0317 60.2235 17.4418 58.4767 18.9265C57.12 20.0812 55.5013 20.917 53.9059 21.6428C53.1489 21.9892 52.1765 21.7418 51.2973 21.7528C48.9391 21.7803 46.5751 21.9562 44.2344 21.7858C41.6724 21.5988 39.9955 23.6718 37.8586 24.5516C36.8105 24.9805 37.6548 24.6506 38.074 25.1015C39.6403 26.7841 37.5383 28.0213 37.9343 29.1045C39.2502 32.6951 40.5254 36.6102 45.201 35.8129C45.7425 35.7194 46.348 35.9173 46.9012 36.0768C47.1632 36.1538 47.3787 36.4507 47.6174 36.6432C47.4136 36.8411 47.2214 37.193 47.006 37.2095C44.3858 37.413 41.6608 37.116 39.1745 37.8584C36.4145 38.6832 33.8875 40.9871 31.1509 37.9628C29.8699 39.7169 28.1347 39.5465 26.3471 39.5849C23.4416 39.6509 20.5361 39.9918 18.0149 37.8584C15.3073 39.6454 12.658 41.559 9.86314 43.1646C8.79759 43.7749 7.79609 43.28 7.22547 41.6414C6.71308 40.1623 3.47567 39.0791 3.0215 40.0028C1.81038 42.4388 -0.769065 44.6437 0.255726 47.668C0.977738 49.807 1.08255 51.462 0.436229 53.5131C0.115982 54.5248 0.925334 55.3496 1.98506 55.1956C2.48581 55.1242 3.21947 54.8107 3.35921 54.3983C3.65617 53.5185 3.56301 52.4848 3.77262 51.55C3.8949 50.9892 4.29084 50.5053 4.55868 49.9884C5.03614 50.3678 5.61259 50.6592 5.96195 51.1486C6.48599 51.8854 7.03332 52.7157 7.23712 53.601C7.7728 55.916 8.62291 54.7063 9.57783 54.0574C10.0262 53.7495 10.8646 53.4251 11.1616 53.667C13.4383 55.5476 16.041 55.5476 18.6496 55.4211C20.4488 55.3386 22.1548 55.2891 23.6629 56.6748C23.8841 56.8782 24.676 56.5538 25.0603 56.2514C27.0459 54.7008 28.7228 55.784 29.4215 57.6095C30.8422 61.3046 33.41 62.8553 36.63 63.2512C38.697 63.5041 40.5195 64.6258 42.4061 64.9888C44.5022 65.3902 46.0977 67.0288 48.1065 67.1662C50.4647 67.3257 52.7297 67.4851 54.7036 69.1952C55.0704 69.5141 55.8565 69.1787 56.4329 69.2667C57.9934 69.4977 58.9832 66.9793 61.1318 68.6564C62.5642 69.7726 65.0854 69.1622 67.1233 69.2887C68.6023 69.3767 69.959 69.2007 71.2574 68.101C72.3754 67.1552 73.7554 66.215 75.0829 66.0775C76.3465 65.94 77.674 67.1167 79.0074 67.2377C81.3482 67.4466 83.782 66.9078 86.0529 67.3917C88.5741 67.9305 90.5887 65.1922 93.4127 66.8583C95.2935 67.969 98.0185 67.2927 100.371 67.3862C100.959 67.4082 101.582 67.1607 102.129 67.3147C103.661 67.7436 104.685 65.1482 106.019 66.2369C107.608 67.5291 109.466 66.8033 111.061 67.6831C111.94 68.167 116.051 67.947 117.746 67.7546C118.555 67.6611 119.819 67.5731 120.15 68.0735C122.229 71.2407 124.052 70.8008 126.229 68.1615C127.307 66.8583 129.001 67.0562 130.323 67.8316C131.412 68.4749 132.093 68.4859 133.339 68.002C135.19 67.2817 137.333 67.4082 139.359 67.3752C141.135 67.3477 142.888 70.0255 144.693 67.4137C146.754 67.4302 148.845 67.2212 150.865 67.5456C152.245 67.7711 153.532 68.7333 154.854 69.3877C155.471 69.6956 156.018 71.4497 155.622 71.8951C155.238 72.3295 154.772 73.0388 154.359 73.0223C151.785 72.9123 149.054 74.023 146.696 71.9556C145.601 70.9933 144.495 71.2352 143.505 72.1205C142.515 73.0003 141.415 73.2092 140.215 73.1158C137.374 72.9013 134.323 74.155 131.796 71.5377C131.511 71.2462 130.526 71.3507 130.165 71.6751C127.854 73.7426 125.17 73.1763 122.555 73.2092C119.912 73.2422 117.262 73.3302 114.619 73.3962C111.917 76.0081 109.344 74.8863 106.537 73.4292C105.314 72.7913 103.789 72.6704 102.403 72.159C101.361 71.7741 99.905 73.1543 98.5949 73.2807C92.8305 73.8306 86.9088 71.983 81.2841 74.8533C80.2884 75.3647 79.6246 73.1213 78.2097 73.9956C77.2315 74.6004 76.0612 74.9193 74.9432 75.0953C73.9999 75.2438 73.0217 75.5737 72.9111 76.5084C72.4686 80.1211 70.0289 79.8516 68.3752 78.7959C65.7783 77.1353 63.6065 76.5029 61.225 78.8564C58.9891 76.1785 58.7503 78.5045 58.1448 80.2915C58.0109 80.6819 57.3762 80.8634 56.8871 81.1053C56.8987 82.1666 57.4111 83.0573 58.3078 82.8484C59.385 82.5955 60.3166 81.6222 61.3822 81.2098C63.0067 80.5775 64.0024 82.2271 65.2717 82.8594C66.7565 83.6017 67.4552 80.6269 69.0739 82.0236C69.7203 82.5845 70.6053 82.9914 71.4147 83.0848C72.5676 83.2168 73.7554 82.9639 74.9257 82.9309C75.9738 82.9034 76.5037 80.6324 77.8429 82.0786C78.6231 82.9254 79.7586 83.5412 79.7003 85.0424C77.9594 85.9991 76.1369 86.8239 74.5182 87.9896C72.8645 89.1829 70.9488 89.3973 69.4699 88.721C66.378 87.3133 63.5191 86.406 60.503 88.7045C60.305 88.8529 59.845 88.8474 59.6529 88.688C55.9322 85.6527 51.6816 87.5607 47.6989 87.0274C44.8924 86.6535 42.6506 88.1766 40.2459 89.2048C39.3142 89.6007 39.0755 90.64 39.3084 91.5968C39.4307 92.0971 40.0071 92.6855 40.4671 92.8175C41.8413 93.2079 43.3552 92.8395 44.5255 94.2251C47.7571 98.0577 51.8738 99.0474 56.4154 98.8055C59.3501 98.6515 62.308 98.5966 65.231 98.866C68.0666 99.1244 71.1235 98.0467 73.7263 100.433C74.1164 100.791 75.2867 100.125 76.0844 99.8777C76.8938 99.6248 77.9361 98.7835 78.431 99.0914C80.2418 100.213 82.14 100.714 84.1372 101.054C84.9931 101.203 85.063 101.813 84.44 102.446C84.2246 102.66 84.0848 102.968 83.8868 103.204C82.7747 104.535 81.4704 105.327 82.8853 107.878C83.9625 109.825 84.7311 110.859 86.7225 110.776C87.2174 110.754 87.7298 111.287 88.2306 111.562C87.5609 111.964 86.903 112.393 86.2159 112.756C85.4939 113.141 85.3833 113.542 85.686 114.18C86.5886 116.11 88.3994 116.429 89.8784 117.369C90.2103 117.583 90.3384 118.513 90.2918 119.085C90.2219 119.893 89.6455 120.267 89.2204 119.86C86.6584 117.363 83.159 119.964 80.8765 118.293C77.8545 116.088 75.4789 116.929 72.8063 118.392C72.5734 118.518 72.1017 118.546 71.962 118.386C69.8192 115.917 66.7041 117.545 64.5264 116.352C59.9323 113.844 54.7385 115.824 50.2783 113.289C48.2928 115.433 46.7614 111.854 44.7119 112.761C43.5473 113.278 42.6623 113.729 42.5866 115.192C42.5167 116.577 42.7613 117.809 43.6812 118.755C44.7468 119.849 43.5823 120.41 43.2562 121.13C42.9709 121.762 43.0757 122.422 43.821 122.417C44.6129 122.411 45.4688 121.982 46.1675 121.498C46.8139 121.053 47.2156 120.839 47.5533 121.367C47.7105 121.608 47.8153 121.927 47.8503 122.224C47.9959 123.368 47.4136 124.044 46.5285 124.33C45.9812 124.506 45.3524 124.347 44.7701 124.435C40.7932 125.045 36.5718 123.341 32.7754 126.073C32.2746 126.436 31.1683 125.793 30.3531 125.573C29.241 125.276 28.1405 124.677 27.0342 124.66C19.389 124.55 11.7439 124.556 4.09869 124.528C3.80756 124.528 3.41744 124.457 3.24276 124.627C2.91087 124.952 2.6372 125.403 2.48581 125.864C2.42758 126.04 2.82935 126.359 2.95163 126.651C4.04629 129.169 5.90955 126.37 7.27205 127.443C8.2095 128.174 9.61277 128.35 10.3173 129.252C11.7206 131.044 12.8968 128.3 14.0264 129.252C17.5491 132.21 22.3178 128.537 25.7299 132.039C25.8115 132.122 26.2307 131.896 26.4287 131.72C29.3225 129.191 31.1276 132.749 33.4741 133.277C33.4799 136.284 35.9196 136.873 37.5616 137.478C40.2226 138.456 42.7147 140.15 45.5911 140.348C46.4354 140.408 47.1632 140.54 47.5708 141.47C47.0584 141.723 46.546 142.173 46.0278 142.195C42.7962 142.322 39.5588 142.289 36.333 142.454C35.5353 142.498 34.464 142.855 34.0622 143.493C33.6488 144.153 33.7769 145.242 33.7187 146.182C32.3212 146.281 30.9179 146.308 29.5438 146.567C29.177 146.638 28.7577 147.485 28.6879 148.024C28.618 148.552 28.9382 149.624 29.1362 149.641C32.2805 149.877 34.8483 152.516 38.1206 152.208C39.8616 152.044 41.6375 152.313 43.3726 152.115C45.4572 151.879 47.3262 152.219 48.9741 153.715C50.3307 152.192 51.9727 151.956 53.8069 152.208C58.0458 152.802 62.5467 150.773 66.5585 153.798C66.6459 153.864 67.0185 153.462 67.2573 153.264C68.8177 151.967 70.7451 151.681 72.1192 152.907C74.0931 154.666 75.3217 151.532 76.8006 152.428C78.3087 153.336 79.7353 154.259 81.4937 154.254C81.7033 155.645 81.2259 157.416 83.0193 157.955C85.4764 158.691 86.443 157.757 86.9204 154.298C88.9642 154.512 88.5275 156.365 88.6207 157.806C88.7371 159.516 90.1753 160.44 90.8799 159.747C93.2322 157.438 95.0489 160.44 97.1567 160.077C101.535 159.324 105.501 161.397 109.501 162.865C110.916 163.387 111.271 163.585 111.655 161.771C112.051 159.885 113.379 158.664 115.091 158.098C115.149 157.229 115.143 156.343 115.323 155.508C115.393 155.194 115.958 154.98 116.331 154.826C116.401 154.798 116.744 155.238 116.779 155.497C116.896 156.338 116.936 157.196 117.006 158.048C117.845 158.136 118.759 158.048 119.458 158.438C121.228 159.434 122.183 162.233 124.494 161.886C126.823 161.534 127.93 164.355 130.107 164.064C131.353 163.899 132.267 165.152 133.269 165.339C136.093 165.867 136.314 168.688 137.566 170.59C137.683 170.761 137.694 171.267 137.642 171.289C137.124 171.514 136.314 172.015 136.093 171.795C133.566 169.342 131.749 170.14 129.443 172.576C127.656 174.467 124.896 175.154 122.718 176.656C120.814 177.964 119.015 178.608 117.099 177.024C116.267 176.331 115.708 176.562 114.881 177.002C112.29 178.388 109.07 177.282 106.624 179.608C106.112 180.098 104.668 180.114 104.08 179.658C100.342 176.738 96.1552 177.75 92.1783 178.058C89.4067 178.272 86.7108 179.641 83.9858 180.527C83.9101 180.549 83.8403 180.994 83.9218 181.131C84.079 181.395 84.3352 181.764 84.5623 181.769C87.6832 181.868 90.1753 182.347 87.2523 186.625C87.1941 186.707 87.4037 187.213 87.526 187.235C90.9497 187.873 94.4142 188.406 97.6691 186.636C99.1714 185.816 99.084 187.048 99.183 187.801C99.3402 188.978 99.9574 189.627 100.842 189.638C101.96 189.654 103.265 189.627 104.167 189.027C106.467 187.493 107.771 189.803 109.344 190.611C109.885 190.892 109.897 193.009 109.74 194.224C109.629 195.098 108.808 195.675 107.789 195.708C106.362 195.752 104.924 195.928 103.538 196.258C103.236 196.33 102.828 197.396 102.95 197.847C103.591 200.261 105.349 201.801 107.393 201.526C108.47 201.377 109.466 200.245 110.52 200.206C111.527 200.162 112.546 201.163 113.6 201.317C114.473 201.449 115.015 200.674 115.207 199.7C115.766 199.7 116.319 199.711 116.878 199.711C117.082 201.724 118.922 201.399 119.947 202.252C122.538 204.413 124.78 203.984 126.829 201.322C126.992 201.114 127.155 200.927 127.318 200.767C127.283 200.866 127.242 200.965 127.202 201.059C124.954 206.172 128.861 201.207 128.326 203.582C127.959 205.216 128.407 205.875 127.749 207.772C126.439 211.555 129.967 206.535 129.449 208.625C127.836 215.146 134.032 209.169 131.773 216.713C131.72 216.895 132.157 216.554 132.436 216.262C136.524 212.05 133.473 219.331 133.968 220.892C130.69 226.699 131.167 228.392 131.26 229.938C131.417 232.439 130.713 236.283 131.813 237.328C132.134 237.636 132.326 238.065 131.493 239.956C130.981 240.324 130.253 241.078 129.991 241.001C128.372 240.495 126.928 239.681 125.263 239.258C124.855 239.153 123.97 239.604 123.085 240.742C122.177 241.914 121.047 244.042 119.993 245.845C119.242 245.713 118.573 245.438 117.658 245.62C117.414 245.669 116.302 247.203 115.679 248.232C115.073 249.232 114.048 251.377 114.124 251.448C115.306 252.63 113.606 258.316 115.446 258.481C116.424 258.569 116.942 259.493 117.955 259.515C119.172 259.542 119.656 260.631 118.782 263.892C121.065 261.269 122.078 261.186 122.643 262.105C123.941 264.227 128.221 261.357 126.759 268.12C126.73 268.263 127.341 267.576 127.662 267.257C129.793 265.118 130.986 265.008 130.282 267.691C129.269 271.54 133.251 265.783 132.955 267.845C132.658 269.94 132.302 272.063 133.112 272.459C131.691 275.186 129.542 278.491 129.775 279.948C130.096 281.944 131.563 280.355 135.551 273.795C136.256 274.675 134.032 278.155 132.506 280.954C130.695 284.275 130.346 286.392 131.423 285.221C135.022 281.306 132.576 287.519 133.939 287.311C136.768 286.876 136.326 291.786 136.553 295.548C136.634 296.878 136.582 297.346 138.736 293.936C140.978 290.39 142.917 288.344 144.32 287.651C145.293 285.991 146.259 284.281 147.255 282.714C147.628 282.125 148.123 281.839 148.466 281.625C148.53 281.586 148.204 282.521 147.936 283.027C147.069 284.682 146.155 286.337 145.258 287.998C145.543 288.361 146.067 288.399 145.957 289.318C145.683 291.649 143.063 297.269 144.507 297.131C145.957 296.988 143.389 302.685 144.705 302.63C145.456 302.597 144.507 305.225 144.763 305.819C145.479 307.491 142.51 312.978 141.001 316.943C140.868 317.3 140.326 318.273 140.274 318.306C139.79 318.62 138.876 319.395 139.01 318.917C140.53 313.6 138.824 314.716 135.109 318.884C132.227 322.117 130.206 322.81 127.574 325.191C125.274 327.275 123.743 328.1 124.599 324.597C124.972 323.074 124.465 323.382 123.603 324.047C120.902 326.12 120.634 323.239 116.971 327.17C116.203 327.995 115.527 327.687 115.754 326.675C117.227 320.176 114.206 321.155 112.045 320.83C110.543 320.605 107.806 322.623 105.594 323.701C105.53 323.728 105.017 324.569 104.907 324.85C104.691 325.394 104.406 326.164 104.505 326.23C105.827 327.148 106.45 328.649 100.441 336.221C100.324 336.37 99.8701 337.387 99.905 337.458C100.778 339.482 101.786 341.318 105.209 338.652C106.793 337.42 105.407 339.773 104.633 341.247C103.422 343.551 103.003 344.942 103.393 345.173C103.888 345.459 104.517 345.712 105.588 344.76C108.319 342.33 106.397 347.086 106.234 349.016C106.176 349.682 103.87 353.767 102.473 356.077C101.471 357.732 100.464 358.661 99.9632 358.485C99.2645 358.238 98.4144 358.243 97.4129 358.557C97.1975 358.623 95.8466 360.586 95.4099 361.487C93.0692 366.293 92.1958 369.669 93.4302 369.609C94.0823 369.576 95.7767 367.624 96.3066 367.783C96.8132 367.937 96.196 370.093 96.5046 370.643C96.7666 371.094 97.8554 369.73 99.0025 367.899C99.2529 368.036 99.5033 368.174 99.7536 368.311C97.6458 372.243 98.8453 372.045 98.3853 373.925C98.362 374.019 98.3445 374.096 98.3271 374.189C96.5628 374.668 94.7228 374.767 92.8072 374.437C91.1011 374.14 89.8085 374.574 89.4475 376.73C89.3077 377.544 88.4984 377.747 88.085 377.181C86.6875 375.256 84.1256 378.671 82.7223 375.844C82.4079 375.218 80.5621 375.789 80.271 377.417C81.9421 377.725 83.0484 379.177 83.0717 380.48C83.1066 382.201 81.2783 381.36 80.2477 381.349C78.4543 381.332 77.3596 382.531 76.3756 383.779C75.409 385.011 74.8966 386.732 73.7787 387.716C72.4045 388.92 70.5354 389.459 69.0099 390.498C67.2107 391.725 68.2355 394.314 66.9079 395.805C65.8424 396.998 64.4042 397.916 63.6181 399.274C62.8611 400.577 63.2629 402.298 62.4244 403.849C61.0852 406.335 58.5465 408.38 58.727 411.509C58.9308 414.989 56.3223 417.535 56.1767 420.724C56.002 424.447 54.8026 427.779 52.8985 430.688C51.1401 433.382 52.1358 436.709 50.7034 439.041C49.1779 441.531 45.5154 441.933 44.4615 445.529C43.7569 447.921 43.2911 447.772 45.463 448.476C49.3584 449.741 50.1561 450.841 49.7718 454.453C49.667 455.427 49.8591 456.719 49.3409 457.313C47.5999 459.298 48.8518 461.887 47.5766 464.158C46.4121 466.231 46.4936 469.3 46.6392 471.884C46.8022 474.765 44.5023 476.552 44.3217 479.225C43.9258 485.13 43.3202 491.025 42.8311 496.925C42.6681 498.888 42.9359 500.653 43.9549 502.479C44.9098 504.183 44.4149 506.273 42.901 507.796C41.5385 509.17 40.1003 510.452 38.7436 511.837C37.9925 512.602 37.911 513.635 38.4525 514.493C39.978 516.929 42.1382 518.474 44.9098 518.546C45.8764 518.573 46.6566 518.337 46.7673 519.442C46.9012 520.734 46.7673 522.07 46.6217 523.379C46.4994 524.528 46.9478 525.419 47.8678 525.639C49.8591 526.123 50.0454 527.443 49.8708 529.263C49.568 532.435 48.8052 535.075 45.201 535.569C43.9957 535.734 43.9258 536.702 44.6362 537.51C45.8822 538.924 47.204 540.265 48.5607 541.552C52.3978 545.192 56.8405 547.919 61.4288 550.328C63.292 551.307 62.5293 551.834 61.8655 553.05C61.6384 553.457 62.3313 554.947 62.9252 555.227C65.9239 556.662 68.7479 558.741 72.1541 558.928C74.6986 559.065 76.9404 559.522 78.9317 561.364C80.0322 562.381 81.5519 562.925 82.9377 563.547C83.4734 563.789 84.3526 563.948 84.7544 563.657C86.6351 562.287 88.5683 563.635 90.4665 563.261C95.3342 562.298 99.8293 560.264 104.301 558.097C107.696 556.453 111.073 554.991 114.986 555.909C117.379 556.47 119.836 556.646 122.212 554.963C122.998 554.408 124.96 554.622 125.694 555.304C128.058 557.504 130.911 557.267 133.607 557.273C136.518 557.273 138.515 558.345 139.202 561.21C140.012 564.586 141.863 566.109 145.112 566.104C145.613 566.104 146.09 566.84 146.597 567.209C148.251 568.413 149.869 568.303 151.797 567.55C155.18 566.23 158.697 565.317 162.12 564.091C165.177 562.991 169.393 561.424 171.239 566.857C171.745 568.352 173.294 565.466 174.103 566.681C176.066 569.645 178.692 570.618 182.051 570.552C185.475 570.486 188.893 570.904 192.317 571.063C197.394 571.3 199.094 570.975 203.473 567.819C205.167 566.598 206.705 566.131 208.655 566.181C209.453 566.203 210.256 565.07 211.107 564.949C212.079 564.817 212.615 566.983 214.047 565.691C215.113 564.729 215.631 565.515 215.701 566.521C215.829 568.286 216.388 568.787 217.902 567.726C218.379 567.39 218.967 567.236 219.514 567.016C219.776 565.939 220.429 565.328 221.459 565.191C221.5 563.646 220.603 563.101 219.282 563.008C213.29 562.595 207.298 562.177 201.301 561.765C201.517 560.269 202.716 560.385 203.776 559.896C206.28 558.746 208.713 557.46 211.386 556.822C212.877 558.383 214.321 557.768 216.137 557.157C217.808 556.596 219.817 557.229 221.68 557.339C223.212 557.432 224.702 557.641 226.112 556.492C227.492 555.365 228.912 558.317 230.717 556.365C231.562 555.453 233.739 556.096 235.026 555.414C236.493 554.644 237.448 556.107 238.112 555.92C239.55 555.519 240.808 554.606 242.479 554.82C244.942 555.134 247.44 555.156 249.926 555.304C252.098 555.436 254.27 555.596 256.442 555.711C258.928 555.843 261.502 555.563 263.872 556.167C266.276 556.778 268.326 553.473 269.921 555.013C272.413 557.41 274.399 554.452 276.681 555.073C279.028 555.711 281.619 555.546 284.105 555.491C286.825 555.431 289.567 556.662 292.28 554.853C294.901 553.11 296.822 555.634 299.029 556.398C299.303 556.492 299.751 556.536 299.926 556.371C302.394 554.072 305.306 554.82 307.967 555.26C311.152 555.794 313.749 553.462 316.974 553.885C322.506 554.611 328.142 554.562 333.72 554.991C336.416 555.2 339.374 554.694 341.459 557.328C341.692 557.619 342.909 557.559 343.176 557.229C345.081 554.881 346.233 557.713 347.753 557.79C348.533 555.183 350.63 556.365 352.207 556.211C353.419 556.09 354.636 556.31 355.113 557.801C355.422 558.763 354.956 560.583 357.011 559.45C358.607 558.576 360.26 557.79 361.955 557.174C362.741 556.888 363.882 556.739 364.284 557.911C364.581 558.779 364.592 559.698 363.859 560.55C363.329 561.171 362.997 561.98 362.595 562.733C365.303 562.953 368.406 562.463 370.508 563.756C374.572 566.247 378.526 566.527 382.759 565.147C383.83 564.8 384.314 564.894 384.919 565.603C386.462 567.401 389.275 565.9 390.742 568.083C391.301 568.908 392.396 568.809 393.263 568.292C394.637 567.473 395.994 566.516 397.415 568.045C399.138 569.903 400.996 566.274 402.253 567.885C403.761 569.81 405.683 567.588 406.958 568.847C408.862 570.728 410.294 568.847 411.989 568.402C413.078 568.116 414.51 568.462 415.529 569.034C416.67 569.672 417.427 569.942 418.784 569.381C419.861 568.935 421.282 571.058 422.668 569.392C424.251 571.184 425.847 569.848 427.483 569.392C430.214 568.638 432.555 571.157 435.21 570.48C436.648 570.118 437.679 572.284 439.262 570.695C440.147 569.81 440.91 572.542 442.308 571.3C443.635 570.118 445.242 570.469 446.774 570.618C448.922 570.821 450.966 571.096 452.94 569.403C453.638 568.803 455.7 568.88 456.364 569.529C458.419 571.547 460.835 571.437 463.298 571.569C465.779 571.707 468.253 572.108 470.734 572.064C473.436 572.02 476.295 573.373 478.816 571.157C480.801 572.839 483.218 573.07 485.634 573.213C486.531 573.263 487.497 573.164 488.33 572.834C488.726 572.68 488.918 571.91 489.192 571.382C487.084 570.343 486.007 568.199 484.586 566.439C483.637 565.262 484.522 563.816 486.374 563.409C486.933 563.288 487.526 563.338 488.103 563.316C490.088 561.067 490.793 561.012 491.655 563.371C492.173 564.784 492.359 565.867 493.809 564.443C495.801 562.491 497.6 561.05 500.121 563.701C500.808 564.421 502.66 564.674 503.597 564.234C508.82 561.765 513.752 562.419 518.614 564.971C519.481 565.427 520.372 565.708 521.176 565.004C522.829 563.563 524.681 563.948 526.527 564.075C533.363 564.547 540.198 564.982 547.028 565.504C548.385 565.609 549.352 564.602 550.458 564.415C551.39 564.256 552.484 565.306 553.503 565.829C554.528 566.351 556.281 567.528 556.455 567.313C558.185 565.125 560.49 569.469 561.969 566.587C565.958 566.961 570.156 562.744 574.04 567.038C574.482 567.528 576.235 567.539 576.666 567.06C578.948 564.503 580.777 568.798 582.273 567.506C585.109 565.053 586.559 569.155 588.899 568.462C589.289 568.347 589.942 568.979 590.378 569.381C590.984 569.942 590.634 572.878 589.691 573.895C588.69 574.978 587.677 576.633 586.058 574.643C585.65 574.143 585.062 574.44 584.87 575.297C584.649 576.304 584.87 577.508 585.773 577.761C591.077 579.262 597.022 576.87 602.035 580.422C602.117 580.477 602.955 579.757 603.054 579.311C603.421 577.59 604.137 576.985 605.273 578.536C606.676 580.461 608.289 581.659 610.717 581.56C612.807 581.478 614.927 582.105 617.023 582.028V383.548C616.854 383.4 616.685 383.251 616.516 383.141C616.685 383.048 616.854 382.954 617.023 382.861V376.834C614.339 378.665 612.312 377.95 610.105 376.059C611.427 374.409 612.108 372.353 613.384 370.67C614.047 369.796 613.715 368.223 617.023 369.098V152.192V2.08959C616.475 1.99061 615.887 1.95762 615.235 2.00711H615.212ZM4.4597 43.1151C4.28502 42.9226 4.10452 42.7247 3.92984 42.5322C4.11616 42.3508 4.30249 42.1693 4.48881 41.9824C4.65767 42.0648 4.82653 42.1528 4.98956 42.2353C4.80906 42.5267 4.63438 42.8237 4.45388 43.1151H4.4597ZM88.8128 53.3371C88.3354 53.1501 87.8521 52.9632 87.3746 52.7817C87.5842 52.4188 87.8521 51.7205 87.9918 51.7535C88.7313 51.9129 89.4417 52.2539 90.1637 52.5343C89.7095 52.8037 89.2612 53.0732 88.807 53.3426L88.8128 53.3371ZM93.8203 53.2491C93.337 53.2326 92.8654 52.7487 92.3879 52.4683C92.8945 52.2319 93.4069 52.0009 93.9135 51.7645C94.3735 52.0284 94.8276 52.2923 95.2818 52.5508C94.7927 52.8037 94.3036 53.2601 93.8203 53.2491ZM113.798 55.3276C111.801 55.4266 109.798 55.4321 107.806 55.3276C107.37 55.3056 106.956 54.7063 106.531 54.3763C107.003 54.0684 107.451 53.59 107.958 53.5021C108.796 53.3536 109.664 53.4636 111.702 53.4636C111.661 53.4636 112.796 53.5021 113.926 53.6285C114.165 53.656 114.584 54.1344 114.561 54.1839C114.351 54.6128 114.072 55.3166 113.792 55.3276H113.798ZM124.832 55.1626C122.567 55.1901 120.308 55.1736 118.043 55.1187C117.804 55.1132 117.577 54.7612 117.344 54.5688C117.466 54.3653 117.554 54.0684 117.722 53.9694C118.724 53.3976 119.743 52.8642 120.762 52.3363C122.73 51.3191 123.324 51.528 125.065 53.832C125.251 54.0739 125.536 54.4038 125.496 54.6293C125.455 54.8547 125.065 55.1571 124.826 55.1626H124.832ZM139.418 54.1839C139.231 54.6073 138.923 55.2011 138.597 55.2671C137.793 55.4156 136.926 55.3221 134.538 55.3166C134.562 55.3221 134.585 55.3276 134.608 55.3331C134.981 55.4211 135.19 55.3826 134.608 55.3331C134.532 55.3276 134.503 55.3221 134.393 55.3111C134.451 55.3111 134.48 55.3111 134.532 55.3111C134.48 55.2946 134.428 55.2891 134.375 55.2671C133.956 55.1077 133.647 54.6128 133.286 54.2719C133.49 54.0519 133.659 53.755 133.904 53.634C134.661 53.2546 135.551 53.1061 136.198 52.5728C137.543 51.4566 138.154 52.7432 138.958 53.4306C139.173 53.612 139.47 54.0409 139.412 54.1784L139.418 54.1839ZM81.8838 86.8019C80.5446 87.2088 79.9623 86.4335 79.8401 85.0644C79.7877 85.0973 79.7294 85.1248 79.6712 85.1578L79.8226 84.9709C79.8226 85.0094 79.8343 85.0314 79.8401 85.0644C80.498 84.6904 81.1909 84.377 81.7557 83.8766C82.3671 83.3323 82.7281 83.2718 83.0193 84.0416C83.1182 84.3 83.159 84.5915 83.1881 84.8719C83.2929 85.9606 82.7165 86.5545 81.8897 86.8019H81.8838ZM34.4174 147.617C34.1437 147.425 34.0447 146.908 33.9224 146.446C33.8409 146.418 33.7536 146.402 33.6779 146.369L33.8468 146.171C33.8759 146.253 33.8992 146.352 33.9224 146.446C34.3359 146.572 34.79 146.66 34.988 146.963C35.3199 147.463 34.8948 147.958 34.4174 147.617ZM52.7879 141.481C52.7239 141.585 52.6482 141.701 52.5958 141.8C52.4968 141.794 52.3862 141.805 52.2813 141.805C52.1765 141.805 52.0834 141.794 52.0135 141.739C51.5477 141.371 51.6641 140.92 52.3629 140.584C52.4444 140.546 52.7763 140.953 52.8694 141.206C52.8927 141.272 52.852 141.365 52.7879 141.475V141.481ZM62.9252 147.87C62.8146 147.909 62.5642 147.469 62.3837 147.254C62.5875 147.051 62.8728 146.627 62.9776 146.677C63.8219 147.084 63.7986 147.562 62.9252 147.87ZM70.2792 147.529C69.5863 148.392 67.0011 148.392 66.2441 147.529C66.1568 147.43 66.1743 147.078 66.2616 146.957C66.4421 146.71 66.6983 146.413 66.9487 146.374C67.5251 146.286 68.119 146.347 68.6722 146.347C69.2312 146.55 69.7727 146.726 70.2851 146.963C70.3491 146.99 70.3666 147.414 70.2734 147.524L70.2792 147.529ZM81.68 154.062C81.6509 154.133 81.6218 154.199 81.5985 154.265L81.4413 154.095C81.5228 154.078 81.6043 154.073 81.6859 154.056C81.8431 153.633 81.9828 153.204 82.1866 152.808C82.2274 152.725 82.7456 152.808 82.7514 152.874C82.8912 153.913 82.2798 153.974 81.6859 154.056L81.68 154.062ZM86.7516 154.27C86.7225 154.199 86.6934 154.133 86.6642 154.056C86.0587 154.012 85.4706 153.941 85.5812 152.907C85.5871 152.846 86.1053 152.747 86.146 152.824C86.3498 153.215 86.5012 153.638 86.6642 154.056C86.7516 154.062 86.8331 154.073 86.9146 154.078L86.7516 154.27ZM96.522 153.858C96.4056 153.836 96.3008 153.726 96.2018 153.6C96.1028 153.468 96.0097 153.319 95.9048 153.198C96.0038 153.105 96.1086 153.017 96.2076 152.923C96.3357 152.808 96.458 152.698 96.5861 152.582C96.7666 152.819 97.1043 153.061 97.0927 153.286C97.081 153.506 96.6851 153.897 96.5162 153.864L96.522 153.858ZM101.827 120.261C101.629 120.036 101.221 119.695 101.262 119.601C101.675 118.683 102.135 118.711 102.455 119.678C102.484 119.772 102.054 120.058 101.827 120.261ZM107.434 155.557C107.247 155.546 107.02 155.612 106.892 155.513C106.467 155.189 106.578 154.787 107.212 154.496C107.288 154.463 107.573 154.831 107.667 155.062C107.707 155.167 107.521 155.392 107.434 155.563V155.557ZM110.927 153.649C110.747 153.633 110.52 153.688 110.392 153.583C109.967 153.242 110.089 152.835 110.735 152.549C110.817 152.511 111.108 152.89 111.195 153.127C111.236 153.242 111.026 153.473 110.933 153.649H110.927ZM91.2875 183.375C91.1652 183.424 90.9614 183.215 90.7925 183.122C90.7925 182.929 90.7285 182.677 90.81 182.556C91.1594 182.072 91.5437 182.187 91.829 182.88C91.8581 182.946 91.5087 183.287 91.2933 183.369L91.2875 183.375ZM115.061 199.684C115.032 199.607 115.015 199.519 114.992 199.436C114.584 199.304 114.118 199.217 113.926 198.914C113.6 198.408 114.013 197.919 114.479 198.254C114.759 198.458 114.858 198.98 114.992 199.436C115.067 199.458 115.149 199.48 115.213 199.508L115.061 199.684ZM118.206 198.81C117.821 199.046 117.414 199.222 117.006 199.409C117.006 199.508 116.995 199.601 116.989 199.7L116.808 199.508C116.872 199.475 116.942 199.442 117.006 199.409C117.047 198.678 117.117 197.974 118.124 198.166C118.188 198.177 118.27 198.771 118.206 198.81ZM118.345 193.487C117.984 193.454 117.664 192.816 117.321 192.442C117.851 192.255 118.38 191.892 118.887 191.936C119.236 191.969 119.545 192.558 119.877 192.899C119.364 193.118 118.84 193.536 118.345 193.487ZM119.778 246.4C119.83 246.741 119.941 247.016 119.702 247.643C119.312 248.682 118.578 249.54 118.73 248.77C118.817 248.331 119.335 247.313 119.778 246.4C119.766 246.335 119.749 246.274 119.749 246.197L120.04 245.856C119.964 246.021 119.865 246.219 119.778 246.4ZM131.528 255.853C131.435 255.902 131.802 254.995 131.953 254.533C132.267 254.187 132.861 253.439 132.856 253.56C132.797 254.539 132.267 255.451 131.528 255.853ZM82.4952 384.95C82.2507 384.725 82.0061 384.499 81.7674 384.274C81.9712 384.103 82.175 383.933 82.3788 383.757C82.536 383.971 82.6874 384.191 82.8446 384.406C82.7281 384.587 82.6117 384.769 82.501 384.95H82.4952ZM455.676 559.879C455.799 559.945 455.828 559.973 455.676 559.879V559.879ZM322.768 29.088C322.617 29.0055 322.652 29.0275 322.768 29.088V29.088ZM602.024 206.238C602.059 206.205 602.093 206.172 602.122 206.139C602.449 206.271 602.775 206.403 603.101 206.535C602.99 206.634 602.879 206.772 602.775 206.882C602.763 206.893 602.751 206.904 602.746 206.909C602.507 206.684 602.268 206.464 602.029 206.238H602.024ZM175.809 24.5296C176.118 24.0292 176.491 24.1557 176.759 24.8925C176.793 24.986 176.45 25.3159 176.24 25.4204C176.141 25.4699 175.932 25.2444 175.798 25.162C175.798 24.9365 175.722 24.6726 175.809 24.5296ZM174.499 29.3464C174.377 29.3959 174.173 29.1925 174.016 29.11C174.016 28.9065 173.946 28.6481 174.028 28.5216C174.354 28.0433 174.738 28.1587 175.029 28.8516C175.058 28.9175 174.709 29.2585 174.493 29.3464H174.499ZM180.939 28.8626C181.027 28.6756 181.108 28.4887 181.195 28.3017C181.452 28.5051 181.708 28.7086 181.964 28.912C181.784 29.099 181.609 29.2915 181.428 29.4784C181.265 29.2695 181.102 29.066 180.945 28.8571L180.939 28.8626ZM181.673 25.3269C181.504 25.3434 181.318 25.3874 181.219 25.2994C181.096 25.195 181.015 25.085 180.974 24.9695C181.201 25.0905 181.44 25.206 181.673 25.3269ZM172.491 22.4841C172.776 22.8415 173.294 23.1989 173.306 23.5783C173.323 24.1392 172.98 24.7111 172.793 25.2774C172.479 24.9035 172.065 24.5846 171.867 24.1502C171.541 23.4464 171.803 22.8635 172.496 22.4841H172.491ZM572.276 10.4311C572.444 10.519 572.607 10.6015 572.776 10.6895C572.596 10.9699 572.415 11.2504 572.241 11.5308C572.066 11.3383 571.897 11.1514 571.722 10.9589C571.909 10.783 572.095 10.607 572.276 10.4311ZM562.796 9.86469C562.93 9.38631 563.023 8.84194 563.314 8.6C563.751 8.23709 564.205 8.73747 563.891 9.28733C563.71 9.60626 563.221 9.71623 562.796 9.86469C562.773 9.95267 562.755 10.0406 562.726 10.1231L562.563 9.94717C562.633 9.91418 562.721 9.89219 562.796 9.86469ZM404.641 21.9837C405.176 21.8023 405.671 21.9123 406.067 22.2367C406.463 22.5611 406.754 23.1 406.877 23.7708C406.696 24.3042 406.516 24.8375 406.335 25.3709C405.549 24.6396 404.734 23.9413 404.012 23.1385C403.936 23.056 404.338 22.0882 404.641 21.9837ZM390.107 22.3412C391.58 21.3239 393.886 21.8628 394.463 23.4574C394.626 23.9028 394.23 24.6011 394.043 25.3654C392.57 24.5571 391.126 23.7653 389.682 22.9735C389.822 22.759 389.921 22.4676 390.107 22.3412ZM351.876 24.8705C351.91 24.986 351.503 25.2719 351.317 25.4589C351.113 25.2389 350.699 24.92 350.74 24.821C351.119 23.8533 351.561 23.8753 351.876 24.8705ZM328.317 26.0967C328.381 26.0637 328.684 26.4431 328.765 26.6796C328.812 26.8006 328.62 27.026 328.532 27.2075C328.352 27.1965 328.119 27.2624 327.997 27.1635C327.578 26.8281 327.688 26.4157 328.317 26.0967ZM313.952 24.2382C316.153 26.4267 317.4 24.3592 318.686 22.836C319.245 22.1762 319.536 22.0387 320.037 22.6711C321.615 24.6836 323.065 23.6498 324.55 22.4621C324.62 22.4071 325.493 23.1989 325.435 23.4024C324.94 25.1565 324.328 26.8665 323.717 28.5766C323.618 28.8626 323.28 29.3134 323.176 29.275C323.071 29.2365 322.972 29.1925 322.884 29.154C319.024 27.048 316.456 28.3732 314.162 27.4054C313.772 27.2405 313.428 26.4267 313.393 25.8878C313.359 25.3544 313.743 24.7881 313.947 24.2327L313.952 24.2382ZM307.35 25.5469C307.78 24.975 308.479 24.6506 309.015 24.2547C309.9 25.2664 309.679 26.1627 309.318 26.971C308.84 28.0433 307.827 27.8838 307.152 27.5484C305.795 26.872 306.954 26.0692 307.35 25.5414V25.5469ZM303.559 24.2107C303.641 24.1722 303.937 24.5626 304.025 24.799C304.071 24.92 303.862 25.1565 303.769 25.3379C303.588 25.3269 303.355 25.3929 303.233 25.2939C302.79 24.9255 302.901 24.5021 303.559 24.2107ZM299.058 26.7071C299.081 26.3937 299.076 25.7668 299.192 25.1785C299.244 24.9145 299.605 24.4801 299.71 24.5186C300.112 24.6671 300.718 24.92 300.782 25.2389C300.945 26.1297 300.985 27.103 300.851 27.9993C300.776 28.5161 300.258 28.9505 299.943 29.4234C299.646 28.9285 299.308 28.4557 299.076 27.9223C298.965 27.6748 299.058 27.3119 299.058 26.7071ZM186.133 22.0607C187.135 22.2367 187.589 22.8855 187.589 23.9797C187.589 24.5846 187.589 25.1895 187.583 25.7943C187.641 25.7833 187.676 25.7503 187.734 25.7393C187.734 25.7888 187.746 25.8273 187.746 25.8768C189.516 25.6293 189.149 23.4739 190.063 22.4621C190.809 21.6318 192.59 22.2147 192.87 23.3584C193.633 26.5036 192.165 28.2797 189.143 27.7573C188.276 27.6089 187.752 26.916 187.752 25.8768C187.694 25.8878 187.653 25.9098 187.589 25.9153C187.589 25.8768 187.589 25.8328 187.589 25.7943C186.343 26.0747 185.877 27.0535 185.755 28.4007C185.731 28.6756 185.324 29.154 185.283 29.132C184.899 28.912 184.264 28.6206 184.246 28.3127C184.2 27.5814 184.171 26.8446 184.159 26.1077C184.38 26.1077 184.631 26.1187 184.939 26.1572C184.677 25.9593 184.415 25.7613 184.159 25.5579C184.159 24.8595 184.188 24.1612 184.27 23.4739C184.38 22.5336 185.091 21.8793 186.133 22.0607ZM168.84 69.7671C169.096 69.9815 169.346 70.196 169.602 70.4049C169.422 70.6029 169.241 70.7953 169.061 70.9933C168.898 70.7788 168.735 70.5699 168.572 70.3554C168.659 70.1575 168.752 69.965 168.84 69.7671ZM162.097 67.7106C162.278 67.936 162.458 68.167 162.633 68.3924C162.423 68.5904 162.19 68.9643 162.01 68.9313C161.899 68.9093 161.8 68.8103 161.707 68.6784C161.614 68.5519 161.521 68.3979 161.422 68.2824C161.643 68.09 161.87 67.8975 162.091 67.7051L162.097 67.7106ZM140.081 169.733C140.245 168.66 140.792 168.056 141.805 168.061C142.678 168.061 143.558 168.061 144.67 168.061C144.978 168.138 145.543 168.237 146.079 168.435C146.341 168.534 146.545 168.814 146.778 169.018C146.545 169.216 146.335 169.463 146.079 169.606C144.815 170.316 143.575 171.129 142.248 171.641C141.461 171.943 140.536 171.679 140.07 170.695C139.948 170.442 140.029 170.046 140.076 169.727L140.081 169.733ZM127.138 195.51C126.759 195.428 126.462 194.851 126.13 194.493C126.352 194.301 126.544 194.004 126.794 193.932C127.318 193.784 127.871 193.751 128.407 193.674C128.943 193.762 129.496 193.795 130.014 193.954C130.259 194.026 130.451 194.328 130.666 194.526C130.329 194.889 130.02 195.488 129.636 195.56C128.82 195.708 127.953 195.681 127.138 195.516V195.51ZM133.217 241.507C133.403 240.687 133.95 239.846 134.637 239.362C134.719 239.302 134.428 240.165 134.189 240.682C134.131 240.814 134.003 240.99 133.863 241.177C133.717 241.364 133.56 241.567 133.426 241.743C133.391 241.705 133.321 241.705 133.275 241.683C133.228 241.661 133.193 241.617 133.222 241.496L133.217 241.507ZM135.161 270.1C134.09 272.14 133.746 272.112 133.38 272.134C133.292 272.261 133.205 272.382 133.118 272.514L133.228 272.151C133.281 272.14 133.327 272.14 133.38 272.14C133.909 271.364 134.445 270.567 134.969 269.852C135.074 269.709 135.22 269.99 135.161 270.105V270.1ZM133.426 255.974C133.496 255.765 133.886 255.088 134.061 254.874C134.41 254.445 134.859 253.917 135.016 253.906C135.371 253.873 135.581 254.126 135.837 254.253C135.872 254.78 135.924 255.242 135.907 255.814C135.907 255.88 135.452 256.705 135.289 256.897C134.032 258.399 132.838 257.805 133.432 255.974H133.426ZM136.78 270.787C136.448 271.584 136.052 272.437 135.674 273.283C135.703 273.316 135.738 273.349 135.767 273.382L135.487 273.712C135.551 273.569 135.61 273.426 135.68 273.283C135.452 273.052 135.255 272.783 136.436 270.82C136.506 270.71 136.85 270.633 136.786 270.787H136.78ZM141.31 274.196C141.066 274.62 140.46 275.279 140.419 275.175C140.39 275.104 140.46 274.873 140.559 274.598C140.658 274.323 140.78 274.004 140.862 273.756C141.007 273.602 141.153 273.448 141.304 273.294C141.485 273.102 141.665 272.915 141.852 272.723C141.677 273.217 141.566 273.773 141.316 274.191L141.31 274.196ZM141.473 206.838C140.85 207.421 141.042 205.925 140.908 205.315C140.827 204.957 140.809 204.495 140.774 204.061C141.689 204.303 142.574 204.682 143.389 205.353C142.847 205.666 142.213 206.145 141.467 206.843L141.473 206.838ZM144.221 280.063C144.122 280.278 143.796 280.663 143.569 280.971C143.494 280.91 143.319 280.976 143.371 280.756C143.529 280.036 144.018 279.282 144.629 278.87C144.705 278.821 144.431 279.596 144.221 280.063ZM147.942 277.155C147.837 277.385 147.488 277.781 147.255 278.1C147.191 278.023 147.028 278.078 147.08 277.847C147.255 277.094 147.756 276.335 148.361 275.939C148.437 275.89 148.158 276.682 147.942 277.155ZM146.224 205.254C146.882 204.913 147.535 204.468 148.128 204.127C148.944 205.106 149.899 205.474 150.888 205.567C150.428 206.134 150.021 206.491 149.677 206.656C149.235 206.871 149.118 206.414 148.757 206.453C147.639 206.568 147.005 205.771 146.224 205.26V205.254ZM142.015 317.724C142.236 317.212 142.702 316.464 143.069 315.865C144.315 313.836 145.223 312.797 145.683 313.044C146.079 313.259 146.486 313.451 146.999 313.71C147.057 313.935 147.208 314.254 147.232 314.76C147.243 315.007 147.028 315.607 146.917 316.041C146.597 316.371 146.23 316.794 145.957 317.009C144.6 318.087 143.15 319.368 141.98 320.05C141.287 320.451 141.153 319.725 142.015 317.718V317.724ZM110.566 359.469C110.968 359.304 111.259 359.37 111.591 359.343C111.743 359.634 111.958 359.832 112.022 360.25C112.057 360.448 111.812 361.075 111.696 361.509C111.143 362.125 110.345 363.22 110.095 363.264C109.559 363.362 109.186 363.11 109 362.593C108.913 362.351 109.413 361.158 109.646 360.399C109.961 360.074 110.374 359.546 110.561 359.469H110.566ZM107.853 354.405C108.301 354.163 108.942 353.591 109.122 353.795C109.25 353.938 108.75 355.147 108.528 355.879C108.057 356.181 107.358 356.863 107.183 356.66C107.055 356.511 107.603 355.208 107.853 354.411V354.405ZM106.584 330.079C106.52 330.217 105.996 330.783 105.803 330.898C105.693 330.964 105.827 330.513 105.85 330.299C106.06 329.931 106.304 329.425 106.473 329.216C107.16 328.363 107.212 328.671 106.584 330.079ZM101.972 365.633C101.99 365.672 101.378 366.832 101.302 366.898C100.872 367.267 100.493 367.508 100.103 367.772C99.9924 367.959 99.8876 368.141 99.7769 368.328L99.905 367.921C99.9691 367.877 100.039 367.822 100.103 367.772C100.918 366.376 101.722 365.023 101.972 365.633ZM99.1714 367.547L98.9093 367.855C98.9792 367.701 99.0666 367.525 99.1481 367.355C99.1015 367.008 98.985 366.733 99.2296 366.106C99.6314 365.051 100.359 364.204 100.202 364.963C100.109 365.419 99.5848 366.447 99.1481 367.355C99.1539 367.421 99.1714 367.475 99.1714 367.547ZM191.018 560.72C190.849 560.621 190.681 560.522 190.512 560.429C190.721 560.165 190.931 559.896 191.141 559.632C191.309 559.835 191.478 560.039 191.641 560.236C191.432 560.396 191.222 560.561 191.018 560.72ZM200.981 561.958C200.806 562.425 200.666 562.958 200.34 563.178C199.851 563.508 199.415 562.98 199.787 562.452C200.003 562.145 200.527 562.073 200.987 561.958C201.016 561.875 201.045 561.782 201.08 561.705L201.237 561.892C201.161 561.919 201.068 561.936 200.987 561.958H200.981ZM368.755 561.138C368.179 561.281 367.661 561.138 367.271 560.786C366.881 560.434 366.613 559.874 366.531 559.197C366.764 558.68 366.991 558.158 367.224 557.641C367.999 558.422 368.808 559.181 369.507 560.033C369.582 560.121 369.082 561.056 368.755 561.138ZM384.116 561.82C382.485 562.727 380.092 562.029 379.609 560.396C379.475 559.94 379.941 559.274 380.191 558.521C381.688 559.434 383.149 560.324 384.611 561.215C384.448 561.419 384.32 561.699 384.116 561.815V561.82ZM424.647 562.018C424.618 561.903 425.072 561.644 425.282 561.468C425.48 561.699 425.893 562.051 425.841 562.145C425.369 563.079 424.898 563.03 424.647 562.013V562.018ZM449.592 562.474C449.516 562.502 449.231 562.101 449.161 561.864C449.126 561.738 449.341 561.529 449.446 561.353C449.638 561.375 449.889 561.325 450.011 561.435C450.43 561.798 450.279 562.205 449.598 562.474H449.592ZM464.608 565.356C462.448 563.013 460.981 564.987 459.508 566.417C458.873 567.038 458.547 567.154 458.07 566.483C456.556 564.366 454.949 565.29 453.289 566.367C453.208 566.417 452.352 565.565 452.427 565.367C453.08 563.657 453.854 561.991 454.628 560.33C454.756 560.055 455.147 559.626 455.251 559.67C455.356 559.714 455.461 559.764 455.548 559.813C459.461 562.188 462.274 561.05 464.62 562.177C465.016 562.37 465.325 563.206 465.319 563.745C465.319 564.278 464.865 564.817 464.608 565.356ZM471.671 564.52C471.171 565.059 470.408 565.334 469.82 565.686C468.964 564.613 469.267 563.734 469.703 562.953C470.286 561.914 471.345 562.15 472.032 562.529C473.418 563.299 472.131 564.02 471.671 564.514V564.52ZM475.567 566.125C475.479 566.159 475.194 565.752 475.118 565.504C475.083 565.378 475.316 565.163 475.427 564.982C475.619 565.004 475.869 564.954 475.992 565.064C476.434 565.46 476.283 565.873 475.567 566.12V566.125ZM480.504 563.954C480.458 564.267 480.411 564.888 480.242 565.471C480.167 565.73 479.753 566.137 479.643 566.093C479.235 565.917 478.606 565.62 478.571 565.295C478.466 564.393 478.496 563.426 478.705 562.54C478.827 562.029 479.404 561.633 479.771 561.188C480.044 561.705 480.365 562.199 480.568 562.744C480.667 563.002 480.545 563.354 480.498 563.954H480.504ZM601.371 575.358C601.185 576.293 600.387 576.892 599.299 576.633C598.256 576.386 597.825 575.71 597.907 574.615C597.953 574.011 598 573.411 598.052 572.806C597.994 572.817 597.953 572.845 597.889 572.85C597.889 572.801 597.884 572.762 597.889 572.713C596.003 572.834 596.224 575.011 595.188 575.952C594.338 576.727 592.503 576.018 592.294 574.857C591.723 571.663 593.406 569.997 596.562 570.733C597.464 570.942 597.965 571.674 597.889 572.713C597.953 572.713 597.994 572.685 598.064 572.691C598.064 572.729 598.058 572.768 598.052 572.812C599.386 572.625 599.951 571.679 600.184 570.343C600.23 570.074 600.696 569.623 600.737 569.65C601.127 569.898 601.773 570.233 601.767 570.541C601.75 572.152 601.697 573.791 601.377 575.363L601.371 575.358ZM604.318 574.923C604.248 574.951 603.933 574.522 603.864 574.264C603.823 574.115 604.05 573.884 604.155 573.692C604.347 573.708 604.609 573.642 604.725 573.752C605.179 574.176 605.034 574.626 604.318 574.923ZM604.982 570.761C604.725 570.541 604.475 570.316 604.219 570.096C604.422 569.92 604.626 569.744 604.824 569.568C604.981 569.788 605.133 570.002 605.29 570.222C605.185 570.404 605.08 570.579 604.982 570.761ZM610.379 574.907C610.018 575.385 609.628 575.231 609.407 574.478C609.378 574.379 609.762 574.077 609.995 573.989C610.105 573.945 610.303 574.181 610.437 574.275C610.42 574.5 610.478 574.769 610.373 574.907H610.379ZM612.557 571.052C612.178 571.503 611.782 571.36 611.526 570.651C611.503 570.585 611.893 570.271 612.126 570.195C612.254 570.151 612.458 570.37 612.615 570.464C612.598 570.667 612.656 570.931 612.557 571.047V571.052ZM613.721 577.183C613.448 576.809 612.929 576.414 612.941 576.034C612.964 575.473 613.372 574.929 613.611 574.373C613.919 574.769 614.327 575.116 614.507 575.567C614.793 576.293 614.478 576.853 613.721 577.183Z" fill="#2B8936"/>
<path d="M424.706 23.9404C424.718 23.8747 424.741 23.8364 424.752 23.7652C424.7 23.7652 424.654 23.7707 424.601 23.7761C424.601 23.8309 424.619 23.8692 424.613 23.9294C424.642 23.9294 424.671 23.9404 424.7 23.9404H424.706Z" fill="#2B8936"/>
<path d="M56.7187 78.2899C56.6139 77.3881 56.5091 76.2004 55.9792 75.711C54.9428 74.7488 53.9238 75.4691 53.0096 76.4039C51.88 77.5531 50.9368 79.9065 48.9803 77.5421C48.1477 78.3394 47.2103 79.0487 46.5698 80.011C46.4475 80.1979 47.3908 81.5231 48.0371 82.018C48.7067 82.5349 49.5917 82.7218 50.4069 82.9803C52.8408 83.7666 54.7157 82.183 56.7012 81.0997C56.7245 80.1595 56.8293 79.2082 56.7245 78.2844L56.7187 78.2899Z" fill="#2B8936"/>
<path d="M94.1643 165.884C95.8761 165.993 97.7277 165.416 99.2184 166.89C100.726 168.385 102.561 167.643 104.261 167.863C104.779 167.643 105.763 167.33 105.746 167.214C105.577 166.147 104.773 166.131 103.964 166.043C103.125 165.949 102.194 165.851 101.512 165.378C100.528 164.696 99.789 163.602 98.8515 162.815C97.7394 161.88 96.6447 164.685 95.2706 162.799C94.4146 161.628 93.1686 162.188 92.4 163.409C92.2544 163.635 92.2894 164.063 92.3418 164.377C92.5339 165.482 93.1744 165.823 94.1643 165.889V165.884Z" fill="#2B8936"/>
<path d="M27.0754 27.6088C28.1701 27.6583 28.6126 25.4203 29.946 26.5695C30.8951 27.3888 31.8908 28.2301 33.0262 27.3448C33.9636 26.6135 34.7672 25.5963 35.431 24.546C35.658 24.1886 35.332 23.3418 35.1689 22.748C35.1165 22.5555 34.6624 22.2916 34.6041 22.3466C32.0771 24.722 29.026 23.6057 26.2078 24.0236C25.3461 24.1501 24.9443 25.1839 25.1539 26.2286C25.3868 27.4218 26.1671 27.5703 27.0754 27.6143V27.6088Z" fill="#2B8936"/>
<path d="M43.4197 78.7683C43.6701 78.7023 43.868 78.3999 44.0951 78.2074C43.8797 78.004 43.6875 77.6961 43.4372 77.6246C42.1329 77.2342 40.8111 76.8878 39.4952 76.5524C38.8547 76.3929 38.1502 74.7378 37.6087 76.3654C37.2535 77.4321 37.4922 78.7518 37.5388 79.956C37.5504 80.209 37.8707 80.4509 38.0454 80.6983C39.5767 79.1422 41.5797 79.2577 43.4197 78.7683Z" fill="#2B8936"/>
<path d="M534.574 11.9266C534.993 11.8496 535.36 11.3272 535.692 10.9478C535.739 10.8928 535.43 10.4419 535.267 10.189C533.969 8.19299 532.204 7.65412 530.126 8.21499C529.875 8.28097 529.666 8.5669 529.439 8.74836C529.491 8.9903 529.503 9.26523 529.613 9.46868C530.737 11.6132 532.472 12.328 534.58 11.9321L534.574 11.9266Z" fill="#2B8936"/>
<path d="M272.757 21.8132C273.177 21.5053 273.619 21.1863 274.062 20.8619C273.846 20.6475 273.66 20.367 273.415 20.2241C272.175 19.4982 270.952 18.7229 269.654 18.1566C269.211 17.9641 268.361 18.1071 268.058 18.47C267.214 19.4872 268.344 19.9491 268.769 20.5595C269.799 22.0331 271.302 21.8132 272.752 21.8132H272.757Z" fill="#2B8936"/>
<path d="M95.9169 197.457C96.3303 197.402 96.6797 196.83 97.0582 196.495C96.8253 196.297 96.6098 195.983 96.3478 195.928C95.7947 195.813 95.2182 195.829 95.0028 195.813C93.7684 195.813 92.8717 195.708 92.0157 195.857C91.6082 195.928 91.2646 196.484 90.892 196.819C91.3927 197.077 91.8876 197.517 92.4 197.556C93.5646 197.644 94.7524 197.616 95.9111 197.457H95.9169Z" fill="#2B8936"/>
<path d="M24.8453 146.556C23.8438 146.699 23.2324 147.172 23.3955 148.238C23.5876 149.756 24.0127 150.201 25.1365 150.003C26.0331 149.844 26.7493 149.41 26.563 148.112C26.4 146.968 25.9225 146.407 24.8395 146.561L24.8453 146.556Z" fill="#2B8936"/>
<path d="M25.5732 75.898C24.9618 75.8815 24.0476 76.9703 23.7972 77.7621C23.6342 78.2679 24.3446 79.2412 24.8279 79.8405C25.1132 80.1925 25.7129 80.231 26.1729 80.4124C26.3534 79.8351 26.5339 79.2577 26.7202 78.6473C26.5223 77.6191 27.1802 75.9365 25.5673 75.898H25.5732Z" fill="#2B8936"/>
<path d="M540.746 7.94557C541.544 8.01155 542.342 7.97306 543.145 7.97306C543.285 6.83484 543.896 6.21899 544.892 6.03753C544.787 4.5309 543.914 3.89855 542.732 4.32745C541.457 4.78384 540.35 5.72411 540.129 7.4012C540.111 7.55516 540.519 7.92357 540.746 7.94557Z" fill="#2B8936"/>
<path d="M505.659 13.8786C506.462 14.0326 507.33 14.0161 508.133 13.8511C508.524 13.7742 508.832 13.2078 509.181 12.8669C508.966 12.6744 508.768 12.3885 508.524 12.317C508.005 12.1741 507.458 12.1411 506.922 12.0696C506.387 12.1246 505.845 12.1246 505.327 12.2565C505.088 12.317 504.902 12.6304 504.686 12.8339C505.007 13.2023 505.292 13.8127 505.659 13.8841V13.8786Z" fill="#2B8936"/>
<path d="M287.402 23.3583C287.512 23.5673 287.85 23.7157 288.1 23.7377C288.968 23.8257 289.835 23.5783 290.074 22.5885C290.266 21.8022 290.179 20.9279 290.167 20.0811C289.498 20.4495 288.787 20.752 288.217 21.2633C287.675 21.7472 286.837 22.2971 287.402 23.3638V23.3583Z" fill="#2B8936"/>
<path d="M424.601 23.7817C424.648 22.418 423.71 21.7142 422.936 20.9609C422.633 20.6694 422.068 20.5595 421.643 20.6035C421.143 20.653 421.137 22.539 421.632 23.1054C422.488 24.0896 423.565 23.8312 424.601 23.7817Z" fill="#2B8936"/>
<path d="M19.3895 25.6183C20.1872 25.7832 21.0373 25.8327 21.835 25.7008C22.1843 25.6458 22.4522 25.0244 22.7608 24.6615C22.5454 24.4746 22.3532 24.1776 22.1145 24.1172C21.6021 23.9907 21.0606 23.9852 20.8277 23.9632C20.257 23.9632 19.9543 23.8807 19.7155 23.9797C19.2264 24.1776 18.7664 24.4691 18.2948 24.722C18.6558 25.0354 18.9877 25.5358 19.3895 25.6183Z" fill="#2B8936"/>
<path d="M555 3.43114C554.802 3.05173 554.581 2.33691 554.406 2.3479C553.69 2.39739 552.991 2.67232 552.1 2.91427C552.747 3.38715 553.143 3.89303 553.591 3.95351C554.034 4.014 554.529 3.62359 555 3.43114Z" fill="#2B8936"/>
<path d="M462.885 19.3498C463.072 18.7779 463.421 18.2061 463.398 17.6452C463.38 17.2603 462.856 16.9029 462.571 16.5455C461.878 16.9304 461.61 17.5187 461.936 18.2281C462.14 18.668 462.559 18.9814 462.885 19.3553V19.3498Z" fill="#2B8936"/>
<path d="M278.994 23.2428C279.756 22.539 279.692 21.6867 279.325 20.8124C279.215 20.543 278.964 20.345 278.778 20.1196C278.58 20.3395 278.324 20.521 278.202 20.7794C277.806 21.6262 277.678 22.484 278.44 23.1823C278.563 23.2923 278.813 23.2263 278.994 23.2428Z" fill="#2B8936"/>
<path d="M55.8511 104.436C56.084 104.326 56.2528 104.062 56.4566 103.864C55.7812 103.573 55.1174 103.199 54.4129 103.039C54.2498 103.001 53.9587 103.71 53.7374 104.051C54.3721 104.964 55.1174 104.788 55.8569 104.431L55.8511 104.436Z" fill="#2B8936"/>
<path d="M498.188 13.5322C498.404 13.4497 498.753 13.1088 498.724 13.0538C498.421 12.383 498.037 12.2675 497.705 12.7349C497.624 12.8504 497.693 13.1088 497.693 13.3013C497.856 13.3838 498.06 13.5817 498.183 13.5322H498.188Z" fill="#2B8936"/>
<path d="M425.783 17.4417C425.876 17.2658 426.074 17.0458 426.034 16.9249C425.958 16.6939 425.673 16.32 425.597 16.353C424.968 16.6279 424.857 17.0293 425.271 17.3812C425.387 17.4802 425.609 17.4252 425.777 17.4417H425.783Z" fill="#2B8936"/>
<path d="M484.575 16.9524C484.383 16.7214 484.202 16.3255 483.998 16.309C483.795 16.2925 483.568 16.6609 483.352 16.8644C483.544 17.1118 483.731 17.3593 483.923 17.6012C484.138 17.3867 484.359 17.1668 484.575 16.9524Z" fill="#2B8936"/>
<path d="M410.708 19.7787C410.615 19.7896 410.528 19.8006 410.435 19.8115C410.405 19.8772 410.382 19.9484 410.353 20.0141C410.44 20.0141 410.533 20.0031 410.621 20.0086C410.65 19.932 410.679 19.8553 410.708 19.7787Z" fill="#2B8936"/>
<path d="M411.733 18.5415C411.722 18.481 411.221 18.415 411.186 18.492C410.994 18.9044 410.854 19.3443 410.708 19.7787C411.326 19.7127 411.919 19.6082 411.733 18.5415Z" fill="#2B8936"/>
<path d="M284.164 21.4393C284.385 21.3568 284.752 20.9939 284.723 20.9334C284.414 20.2186 284.013 20.0976 283.669 20.587C283.582 20.708 283.658 20.9774 283.658 21.1863C283.815 21.2743 284.03 21.4943 284.164 21.4393Z" fill="#2B8936"/>
<path d="M290.819 26.4156C290.755 26.4266 290.68 27.0094 290.744 27.0534C291.122 27.2844 291.53 27.4548 291.932 27.6363C291.879 26.916 291.809 26.2121 290.819 26.4211V26.4156Z" fill="#2B8936"/>
<path d="M31.3901 64.7852C31.4658 64.6202 31.6637 64.3838 31.6171 64.2463C31.5414 64.0044 31.227 63.6085 31.163 63.6415C30.5283 63.9659 30.4177 64.3948 30.8544 64.7687C30.965 64.8622 31.2037 64.7852 31.3901 64.7852Z" fill="#2B8936"/>
<path d="M70.5941 76.2389C70.3088 75.2711 69.872 75.2436 69.4936 76.1729C69.447 76.2829 69.8371 76.6128 70.0234 76.8383C70.2272 76.6348 70.629 76.3599 70.5941 76.2444V76.2389Z" fill="#2B8936"/>
<path d="M20.4609 77.5751C20.2804 77.7565 19.9601 77.9325 19.9543 78.1249C19.9427 78.3174 20.2396 78.5318 20.4027 78.7353C20.5832 78.4494 20.7695 78.1689 20.9558 77.883C20.7928 77.7785 20.6297 77.6795 20.4667 77.5751H20.4609Z" fill="#2B8936"/>
<path d="M30.8019 78.6198C30.9358 78.7298 31.192 78.6583 31.39 78.6693C31.489 78.4494 31.7219 78.1799 31.6695 78.0205C31.5822 77.751 31.2212 77.3166 31.1455 77.3551C30.4293 77.7235 30.3128 78.2129 30.8019 78.6198Z" fill="#2B8936"/>
<path d="M45.9118 101.901C45.5625 101.797 45.2131 101.692 44.8638 101.588V102.16C45.0268 102.242 45.2248 102.44 45.347 102.391C45.5567 102.308 45.7255 102.072 45.906 101.901H45.9118Z" fill="#2B8936"/>
<path d="M51.1639 101.923C50.8902 101.214 50.5117 101.098 50.1856 101.593C50.0983 101.72 50.174 101.984 50.174 102.187C50.3312 102.275 50.535 102.484 50.6398 102.434C50.8494 102.336 51.193 102.011 51.1639 101.929V101.923Z" fill="#2B8936"/>
<path d="M59.4845 103.287C59.2865 103.276 59.0711 103.628 58.8615 103.82C59.0478 104.062 59.2341 104.31 59.4146 104.552C59.6242 104.332 59.8338 104.117 60.0435 103.897C59.8571 103.677 59.6825 103.298 59.4845 103.287Z" fill="#2B8936"/>
<path d="M63.6593 103.853C63.7 103.771 63.3274 103.342 63.0828 103.232C62.9431 103.166 62.6869 103.419 62.4831 103.523C62.4831 103.754 62.4016 104.035 62.4947 104.194C62.8324 104.755 63.2808 104.645 63.6534 103.859L63.6593 103.853Z" fill="#2B8936"/>
<path d="M45.3703 106.284C45.5857 106.218 45.7546 105.976 45.9467 105.811C45.5915 105.701 45.2422 105.585 44.887 105.475C44.8753 105.662 44.8637 105.844 44.8521 106.031C45.0267 106.124 45.2305 106.333 45.3703 106.289V106.284Z" fill="#2B8936"/>
<path d="M50.5524 106.526C50.7388 106.328 50.9309 106.135 51.1172 105.937C50.8494 105.723 50.5815 105.508 50.3195 105.294C50.2264 105.492 50.1332 105.69 50.04 105.882L50.5583 106.526H50.5524Z" fill="#2B8936"/>
<path d="M116.308 159.549C116.547 159.489 116.652 158.752 116.797 158.218C116.273 158.218 115.749 158.218 115.225 158.218C115.272 158.977 115.33 159.797 116.308 159.544V159.549Z" fill="#2B8936"/>
<path d="M90.0127 165.152C89.7449 164.954 89.4828 164.756 89.215 164.553C89.1277 164.729 89.0345 164.91 88.9471 165.086C89.116 165.284 89.279 165.636 89.4537 165.647C89.6342 165.658 89.8264 165.328 90.0127 165.152Z" fill="#2B8936"/>
<path d="M47.0589 182.132C46.8609 182.358 46.6688 182.577 46.4708 182.803C46.6455 183.045 46.826 183.298 47.0123 183.556C47.2161 183.32 47.5538 183.1 47.5771 182.847C47.5946 182.627 47.2452 182.374 47.0589 182.132Z" fill="#2B8936"/>
<path d="M78.4431 183.067C78.612 183.16 78.8158 183.358 78.9497 183.314C79.1593 183.243 79.334 183.012 79.5203 182.841C79.171 182.731 78.8158 182.627 78.4664 182.517C78.4606 182.698 78.4489 182.88 78.4431 183.061V183.067Z" fill="#2B8936"/>
<path d="M84.4579 185.233C84.5336 185.052 84.7141 184.826 84.6733 184.678C84.6034 184.436 84.289 184.04 84.2424 184.068C83.6369 184.408 83.5321 184.843 83.9513 185.222C84.0561 185.316 84.2832 185.239 84.4579 185.239V185.233Z" fill="#2B8936"/>
<path d="M488.08 563.266C488.028 563.326 487.987 563.365 487.935 563.425C487.993 563.458 488.051 563.491 488.109 563.518C488.109 563.43 488.109 563.348 488.109 563.261C488.103 563.261 488.092 563.261 488.086 563.261L488.08 563.266Z" fill="#2B8936"/>
<path d="M347.748 557.745C347.73 557.811 347.701 557.849 347.684 557.915C347.736 557.915 347.788 557.915 347.841 557.915C347.847 557.86 347.829 557.822 347.841 557.762C347.812 557.762 347.783 557.745 347.748 557.745Z" fill="#2B8936"/>
<path d="M80.2301 377.384C80.1371 377.367 80.0673 377.318 79.9742 377.307C79.9335 377.389 79.887 377.466 79.8463 377.548C79.9568 377.548 80.0615 377.542 80.1719 377.537C80.1778 377.477 80.2185 377.438 80.2301 377.384Z" fill="#2B8936"/>
<path d="M489.175 571.332C489.25 571.37 489.309 571.431 489.39 571.469C489.396 571.376 489.402 571.277 489.407 571.184C489.343 571.212 489.274 571.239 489.21 571.266C489.198 571.288 489.192 571.31 489.181 571.332H489.175Z" fill="#2B8936"/>
<path d="M113.356 558.906C112.418 558.218 111.813 558.4 111.102 559.054C109.95 560.121 108.709 561.116 107.708 562.331C107.143 563.013 106.986 564.14 107.795 564.861C108.197 565.218 109.099 565.581 109.379 565.367C111.865 563.431 112.651 565.02 113.385 567.192C113.501 567.539 114.608 567.89 114.957 567.682C116.232 566.923 117.385 565.922 118.433 565.125C118.299 564.113 118.328 563.453 118.125 562.892C117.28 560.588 115.033 560.132 113.356 558.9V558.906Z" fill="#2B8936"/>
<path d="M132.32 559.868C130.993 560.979 129.642 561.408 128.262 559.956C127.849 559.516 127.354 559.021 126.818 558.889C126.3 558.757 125.677 559.06 125.1 559.17C125.211 559.681 125.176 560.308 125.455 560.671C125.968 561.331 126.078 561.792 125.525 562.282C124.873 564.41 125.624 566.593 126.864 566.12C128.681 565.422 129.525 564.927 129.572 567.467C129.572 567.72 130.282 567.951 130.667 568.187C131.645 565.587 132.734 563.019 133.526 560.363C133.753 559.604 132.949 559.346 132.32 559.873V559.868Z" fill="#2B8936"/>
<path d="M57.5338 562.606C57.1495 562.766 56.8176 563.585 56.806 564.102C56.7943 564.613 57.0913 565.411 57.4698 565.592C58.2442 565.966 59.1642 566.01 59.8745 566.164C60.9226 566.164 61.8193 566.241 62.6985 566.125C63.5137 566.015 63.6942 565.548 63.438 564.949C62.4307 562.584 60.0259 561.562 57.5338 562.606Z" fill="#2B8936"/>
<path d="M230.922 561.903C230.473 561.952 230.048 562.441 229.67 562.799C229.617 562.848 229.908 563.321 230.06 563.585C231.277 565.669 233.099 566.329 235.335 565.922C235.603 565.873 235.848 565.609 236.098 565.438C236.057 565.191 236.069 564.921 235.97 564.707C234.945 562.491 233.169 561.655 230.916 561.897L230.922 561.903Z" fill="#2B8936"/>
<path d="M507.901 570.7C507.435 570.975 506.946 571.267 506.451 571.558C506.66 571.789 506.835 572.08 507.085 572.24C508.337 573.048 509.572 573.912 510.893 574.571C511.348 574.797 512.256 574.714 512.599 574.373C513.566 573.417 512.407 572.878 512.006 572.234C511.033 570.695 509.432 570.805 507.901 570.7Z" fill="#2B8936"/>
<path d="M224.109 565.433C223.276 565.312 222.426 565.29 221.582 565.235C221.349 566.356 220.662 566.934 219.591 567.038C219.591 568.55 220.458 569.238 221.739 568.902C223.119 568.539 224.359 567.682 224.715 566.021C224.749 565.867 224.342 565.471 224.103 565.438L224.109 565.433Z" fill="#2B8936"/>
<path d="M261.578 562.018C260.739 561.809 259.825 561.765 258.964 561.87C258.544 561.919 258.177 562.458 257.787 562.777C258.003 562.98 258.189 563.288 258.439 563.371C258.975 563.552 259.552 563.618 260.111 563.734C260.675 563.717 261.252 563.756 261.805 563.662C262.061 563.618 262.282 563.316 262.521 563.134C262.213 562.744 261.956 562.111 261.578 562.018Z" fill="#2B8936"/>
<path d="M39.7863 540.689C39.6815 541.216 39.9144 541.816 40.0367 542.685C40.7587 542.228 41.4283 541.893 41.9873 541.414C42.4123 541.051 42.686 540.496 43.0237 540.029C42.5462 539.77 42.0979 539.407 41.5913 539.281C40.5374 539.022 39.9668 539.737 39.7863 540.689Z" fill="#2B8936"/>
<path d="M491.859 567.682C490.951 567.533 490.013 567.715 489.687 568.688C489.425 569.458 489.454 570.337 489.402 571.184C490.136 570.865 490.91 570.612 491.545 570.145C492.15 569.7 493.082 569.21 492.564 568.11C492.459 567.891 492.115 567.726 491.859 567.682Z" fill="#2B8936"/>
<path d="M347.841 557.916C347.69 559.274 348.621 560.044 349.39 560.852C349.687 561.166 350.275 561.314 350.723 561.298C351.253 561.281 351.404 559.401 350.927 558.801C350.094 557.756 348.941 557.938 347.847 557.916H347.841Z" fill="#2B8936"/>
<path d="M208.726 568.924C208.906 569.32 209.081 570.046 209.267 570.046C210.024 570.046 210.787 569.82 211.742 569.645C211.095 569.128 210.717 568.594 210.245 568.506C209.779 568.418 209.232 568.77 208.72 568.93L208.726 568.924Z" fill="#2B8936"/>
<path d="M99.8473 570.86C99.1311 571.03 98.1529 570.64 97.8443 571.811C97.7977 571.981 98.1995 572.46 98.4324 572.487C99.2417 572.592 100.138 572.674 100.488 571.597C100.534 571.454 100.098 571.14 99.8415 570.86H99.8473Z" fill="#2B8936"/>
<path d="M307.117 559.609C306.873 560.165 306.465 560.715 306.447 561.276C306.436 561.661 306.966 562.056 307.239 562.43C308.002 562.095 308.322 561.529 308.031 560.797C307.851 560.341 307.426 560 307.111 559.609H307.117Z" fill="#2B8936"/>
<path d="M501.426 568.825C500.57 569.469 500.57 570.326 500.896 571.223C500.995 571.498 501.239 571.712 501.42 571.954C501.641 571.751 501.932 571.586 502.078 571.333C502.561 570.519 502.759 569.672 502.008 568.919C501.886 568.798 501.618 568.847 501.426 568.82V568.825Z" fill="#2B8936"/>
<path d="M99.4746 564.997C99.556 564.975 99.6432 564.964 99.7188 564.937C99.7537 564.871 99.7886 564.811 99.8177 564.74C99.7305 564.74 99.6432 564.745 99.5618 564.751C99.5269 564.827 99.5037 564.909 99.4746 564.992V564.997Z" fill="#2B8936"/>
<path d="M98.8632 566.208C99.1777 565.994 99.3058 565.466 99.4746 564.998C99.0205 565.108 98.4964 565.174 98.2985 565.471C97.9433 565.999 98.3916 566.527 98.8632 566.208Z" fill="#2B8936"/>
<path d="M103.911 564.41C104.086 564.514 104.267 564.613 104.447 564.718C104.657 564.564 104.872 564.404 105.088 564.251C104.919 564.053 104.744 563.855 104.575 563.651C104.354 563.904 104.139 564.157 103.917 564.404L103.911 564.41Z" fill="#2B8936"/>
<path d="M100.447 563.503C100.202 563.893 100.016 564.322 99.8123 564.745C100.47 564.723 101.14 564.712 101.052 563.624C101.052 563.558 100.494 563.431 100.441 563.508L100.447 563.503Z" fill="#2B8936"/>
<path d="M269.933 563.162C269.77 563.068 269.572 562.854 269.433 562.898C269.2 562.964 268.804 563.283 268.827 563.338C269.095 564.03 269.491 564.168 269.875 563.728C269.974 563.618 269.916 563.354 269.933 563.162Z" fill="#2B8936"/>
<path d="M346.117 564.157C346.007 564.327 345.78 564.531 345.815 564.652C345.879 564.888 346.147 565.279 346.228 565.251C346.909 565.02 347.061 564.63 346.647 564.25C346.531 564.146 346.298 564.184 346.117 564.157Z" fill="#2B8936"/>
<path d="M284.053 560.456C284.24 560.698 284.397 561.111 284.618 561.144C284.828 561.177 285.096 560.819 285.34 560.638C285.16 560.379 284.973 560.121 284.793 559.857C284.548 560.055 284.298 560.258 284.053 560.456Z" fill="#2B8936"/>
<path d="M362.2 562.897C362.299 562.897 362.392 562.891 362.49 562.886C362.525 562.82 362.554 562.754 362.589 562.689C362.496 562.683 362.397 562.689 362.31 562.678C362.275 562.754 362.235 562.826 362.2 562.902V562.897Z" fill="#2B8936"/>
<path d="M361.023 564.058C361.029 564.118 361.553 564.217 361.594 564.146C361.827 563.75 362.007 563.321 362.2 562.898C361.542 562.92 360.907 562.98 361.023 564.058Z" fill="#2B8936"/>
<path d="M496.354 570.552C496.197 570.453 495.987 570.222 495.842 570.26C495.597 570.326 495.19 570.662 495.213 570.728C495.487 571.459 495.9 571.613 496.296 571.151C496.395 571.036 496.337 570.766 496.354 570.552Z" fill="#2B8936"/>
<path d="M489.314 564.19C488.936 563.931 488.517 563.733 488.109 563.525C488.109 564.245 488.132 564.954 489.192 564.817C489.262 564.806 489.384 564.234 489.314 564.19Z" fill="#2B8936"/>
<path d="M78.6352 378.671C78.6352 378.726 79.1593 378.852 79.2 378.786C79.4446 378.396 79.6367 377.972 79.8463 377.554C79.2059 377.576 78.6003 377.648 78.6352 378.676V378.671Z" fill="#2B8936"/>
<path d="M175.792 14.1095C175.495 13.8181 175.204 13.5322 174.907 13.2408C174.488 13.0868 174.069 12.9328 173.656 12.7789C174.162 13.1913 174.674 13.6037 175.181 14.0216C175.385 14.0491 175.589 14.0766 175.792 14.1095Z" fill="#2B8936"/>
<path d="M204.731 9.93607C204.492 9.76011 203.963 9.54566 203.578 9.35321C203.526 9.43019 203.473 9.50167 203.421 9.57866C204.19 9.99655 204.952 10.4145 205.721 10.8323C205.401 10.5354 205.156 10.244 204.731 9.93607Z" fill="#2B8936"/>
<path d="M216.767 18.6295C216.015 18.1126 215.259 17.5957 214.507 17.0789C214.461 17.1448 214.414 17.2163 214.368 17.2823C214.694 17.5242 215.084 17.8652 215.398 18.0356C215.882 18.2941 216.312 18.437 216.767 18.6295Z" fill="#2B8936"/>
<path d="M418.907 22.7425C419.326 23.0119 419.92 23.1714 420.438 23.3803C420.06 23.0339 419.681 22.6875 419.297 22.3356C418.779 22.1156 418.231 21.8902 417.684 21.6647C418.086 22.0276 418.418 22.4345 418.901 22.7425H418.907Z" fill="#2B8936"/>
<path d="M128.099 292.639C127.785 293.045 127.336 293.876 127.016 294.492C125.898 296.669 125.816 297.472 126.207 297.824C126.87 298.429 128.355 297.741 127.429 300.931C126.492 304.164 128.14 303.158 128.681 303.971C129.159 303.663 129.951 303.289 130.073 303.059C131.162 300.958 130.806 300.749 130.539 300.381C130.259 300.001 129.939 299.6 130.137 298.533C130.428 296.994 131.284 294.712 131.709 292.98C132.216 290.923 128.658 296.075 130.084 292.116C130.975 289.653 129.788 290.456 128.099 292.633V292.639Z" fill="#2B8936"/>
<path d="M90.8454 358.507C91.288 358.941 91.8586 359.167 92.5631 359.128C92.8135 359.117 93.5996 358.095 94.1411 357.534C94.2459 357.099 94.4904 356.445 94.4322 356.28C94.3041 355.928 94.0246 355.824 93.9431 355.747C93.3783 355.461 93.0813 355.054 92.5224 355.142C92.2603 355.186 91.4976 356.176 90.9619 356.736C90.9095 357.347 90.6591 358.309 90.8513 358.502L90.8454 358.507Z" fill="#2B8936"/>
<path d="M111.883 251.212C112.465 251.113 113.268 250.442 114.602 247.89C115.778 245.647 116.168 244.448 115.504 244.498C114.887 244.542 114.095 245.312 113.006 247.407C111.44 250.381 111.143 251.338 111.883 251.212Z" fill="#2B8936"/>
<path d="M143.279 290.72C143.459 290.654 144.309 289.257 144.956 288.267C144.717 288.146 144.472 288.031 144.234 287.91C143.43 289.383 142.557 290.978 143.284 290.72H143.279Z" fill="#2B8936"/>
<path d="M125.106 295.443C125.199 294.998 125.298 294.552 125.391 294.107C125.158 294.431 124.92 294.75 124.687 295.075C124.547 295.498 124.239 296.213 124.308 296.273C124.378 296.334 124.827 295.745 125.106 295.443Z" fill="#2B8936"/>
<path d="M85.8729 319.417C85.6865 319.923 85.4944 320.456 85.3022 320.99C85.6516 320.583 86.0476 320.236 86.3329 319.752C86.5774 319.335 86.6997 318.763 86.8744 318.257C86.5425 318.642 86.2048 319.032 85.8729 319.417Z" fill="#2B8936"/>
<path d="M100.255 327.324C100.231 327.539 100.109 327.973 100.22 327.918C100.395 327.836 100.726 327.418 100.994 327.143C100.954 326.851 100.907 326.565 100.866 326.274C100.662 326.626 100.464 326.972 100.261 327.324H100.255Z" fill="#2B8936"/>
<path d="M100.645 332.894C100.878 332.564 101.21 332.163 101.35 331.872C101.582 331.388 101.868 330.557 101.815 330.596C101.169 331.107 100.645 331.927 100.424 332.751C100.371 332.955 100.563 332.856 100.645 332.894Z" fill="#2B8936"/>
</svg>
